<mxfile host="app.diagrams.net" modified="2021-01-24T18:56:12.521Z" agent="5.0 (Windows NT 10.0; Win64; x64) AppleWebKit/537.36 (KHTML, like Gecko) Chrome/87.0.4280.141 Safari/537.36 Edg/87.0.664.75" etag="63Q0A4VfoMywTKBdC8qi" version="14.2.5" type="github" pages="13">
  <diagram id="2Yk0onbs5j7iT2-o3khS" name="UseCase: Igranje Milijunasa">
    <mxGraphModel dx="1102" dy="566" grid="1" gridSize="10" guides="1" tooltips="1" connect="1" arrows="1" fold="1" page="1" pageScale="1" pageWidth="850" pageHeight="1100" math="0" shadow="0">
      <root>
        <mxCell id="0" />
        <mxCell id="1" parent="0" />
        <mxCell id="U3qUNjxuQkbeGoizrf5r-1" value="Igrač" style="shape=umlActor;verticalLabelPosition=bottom;verticalAlign=top;html=1;outlineConnect=0;" parent="1" vertex="1">
          <mxGeometry x="70" y="190" width="30" height="60" as="geometry" />
        </mxCell>
        <mxCell id="U3qUNjxuQkbeGoizrf5r-3" value="" style="endArrow=none;html=1;entryX=0;entryY=0.5;entryDx=0;entryDy=0;" parent="1" source="U3qUNjxuQkbeGoizrf5r-1" target="U3qUNjxuQkbeGoizrf5r-4" edge="1">
          <mxGeometry width="50" height="50" relative="1" as="geometry">
            <mxPoint x="350" y="360" as="sourcePoint" />
            <mxPoint x="200" y="210" as="targetPoint" />
          </mxGeometry>
        </mxCell>
        <mxCell id="U3qUNjxuQkbeGoizrf5r-6" value="" style="group" parent="1" vertex="1" connectable="0">
          <mxGeometry x="230" y="180" width="120" height="80" as="geometry" />
        </mxCell>
        <mxCell id="U3qUNjxuQkbeGoizrf5r-4" value="" style="ellipse;whiteSpace=wrap;html=1;" parent="U3qUNjxuQkbeGoizrf5r-6" vertex="1">
          <mxGeometry width="120" height="80" as="geometry" />
        </mxCell>
        <mxCell id="U3qUNjxuQkbeGoizrf5r-5" value="Igranje Milijunaša" style="text;html=1;strokeColor=none;fillColor=none;align=center;verticalAlign=middle;whiteSpace=wrap;rounded=0;" parent="U3qUNjxuQkbeGoizrf5r-6" vertex="1">
          <mxGeometry x="10" y="30" width="100" height="20" as="geometry" />
        </mxCell>
        <mxCell id="U3qUNjxuQkbeGoizrf5r-22" value="" style="group" parent="1" vertex="1" connectable="0">
          <mxGeometry x="460" y="30" width="120" height="80" as="geometry" />
        </mxCell>
        <mxCell id="U3qUNjxuQkbeGoizrf5r-15" value="" style="ellipse;whiteSpace=wrap;html=1;" parent="U3qUNjxuQkbeGoizrf5r-22" vertex="1">
          <mxGeometry width="120" height="80" as="geometry" />
        </mxCell>
        <mxCell id="U3qUNjxuQkbeGoizrf5r-18" value="Unos igrača" style="text;html=1;strokeColor=none;fillColor=none;align=center;verticalAlign=middle;whiteSpace=wrap;rounded=0;" parent="U3qUNjxuQkbeGoizrf5r-22" vertex="1">
          <mxGeometry x="25" y="30" width="70" height="20" as="geometry" />
        </mxCell>
        <mxCell id="U3qUNjxuQkbeGoizrf5r-23" value="" style="group" parent="1" vertex="1" connectable="0">
          <mxGeometry x="541.97" y="151.28" width="120" height="80" as="geometry" />
        </mxCell>
        <mxCell id="U3qUNjxuQkbeGoizrf5r-16" value="" style="ellipse;whiteSpace=wrap;html=1;" parent="U3qUNjxuQkbeGoizrf5r-23" vertex="1">
          <mxGeometry width="120" height="80" as="geometry" />
        </mxCell>
        <mxCell id="U3qUNjxuQkbeGoizrf5r-19" value="Postavljanje pitanja" style="text;html=1;strokeColor=none;fillColor=none;align=center;verticalAlign=middle;whiteSpace=wrap;rounded=0;" parent="U3qUNjxuQkbeGoizrf5r-23" vertex="1">
          <mxGeometry x="22.5" y="30" width="75" height="20" as="geometry" />
        </mxCell>
        <mxCell id="U3qUNjxuQkbeGoizrf5r-24" value="" style="group" parent="1" vertex="1" connectable="0">
          <mxGeometry x="350" y="440" width="120" height="80" as="geometry" />
        </mxCell>
        <mxCell id="U3qUNjxuQkbeGoizrf5r-14" value="" style="ellipse;whiteSpace=wrap;html=1;" parent="U3qUNjxuQkbeGoizrf5r-24" vertex="1">
          <mxGeometry width="120" height="80" as="geometry" />
        </mxCell>
        <mxCell id="U3qUNjxuQkbeGoizrf5r-20" value="Odgovaranje na pitanje" style="text;html=1;strokeColor=none;fillColor=none;align=center;verticalAlign=middle;whiteSpace=wrap;rounded=0;" parent="U3qUNjxuQkbeGoizrf5r-24" vertex="1">
          <mxGeometry x="20" y="30" width="80" height="20" as="geometry" />
        </mxCell>
        <mxCell id="U3qUNjxuQkbeGoizrf5r-25" value="" style="group" parent="1" vertex="1" connectable="0">
          <mxGeometry x="200" y="480" width="120" height="80" as="geometry" />
        </mxCell>
        <mxCell id="U3qUNjxuQkbeGoizrf5r-13" value="" style="ellipse;whiteSpace=wrap;html=1;" parent="U3qUNjxuQkbeGoizrf5r-25" vertex="1">
          <mxGeometry width="120" height="80" as="geometry" />
        </mxCell>
        <mxCell id="U3qUNjxuQkbeGoizrf5r-21" value="Izračun osvojenog iznosa" style="text;html=1;strokeColor=none;fillColor=none;align=center;verticalAlign=middle;whiteSpace=wrap;rounded=0;" parent="U3qUNjxuQkbeGoizrf5r-25" vertex="1">
          <mxGeometry x="25" y="30" width="70" height="20" as="geometry" />
        </mxCell>
        <mxCell id="bLmz7B3Nk2e7vl_uy4dI-3" value="Korištenje jockera" style="ellipse;whiteSpace=wrap;html=1;" parent="1" vertex="1">
          <mxGeometry x="470" y="370" width="120" height="80" as="geometry" />
        </mxCell>
        <mxCell id="BxDGFGfUNUaw4Dc7n88b-1" value="Use" style="endArrow=open;endSize=12;dashed=1;html=1;entryX=0.6;entryY=0;entryDx=0;entryDy=0;entryPerimeter=0;exitX=0.408;exitY=1.013;exitDx=0;exitDy=0;exitPerimeter=0;" parent="1" source="U3qUNjxuQkbeGoizrf5r-4" target="U3qUNjxuQkbeGoizrf5r-13" edge="1">
          <mxGeometry width="160" relative="1" as="geometry">
            <mxPoint x="290" y="270" as="sourcePoint" />
            <mxPoint x="280" y="300" as="targetPoint" />
          </mxGeometry>
        </mxCell>
        <mxCell id="BxDGFGfUNUaw4Dc7n88b-2" value="Use" style="endArrow=open;endSize=12;dashed=1;html=1;exitX=1;exitY=0;exitDx=0;exitDy=0;" parent="1" source="U3qUNjxuQkbeGoizrf5r-4" target="U3qUNjxuQkbeGoizrf5r-15" edge="1">
          <mxGeometry width="160" relative="1" as="geometry">
            <mxPoint x="315" y="189.5" as="sourcePoint" />
            <mxPoint x="475" y="189.5" as="targetPoint" />
          </mxGeometry>
        </mxCell>
        <mxCell id="BxDGFGfUNUaw4Dc7n88b-3" value="Use" style="endArrow=open;endSize=12;dashed=1;html=1;entryX=0.017;entryY=0.734;entryDx=0;entryDy=0;entryPerimeter=0;" parent="1" target="U3qUNjxuQkbeGoizrf5r-16" edge="1">
          <mxGeometry width="160" relative="1" as="geometry">
            <mxPoint x="350" y="210" as="sourcePoint" />
            <mxPoint x="541.97" y="181.28" as="targetPoint" />
          </mxGeometry>
        </mxCell>
        <mxCell id="BxDGFGfUNUaw4Dc7n88b-4" value="Use" style="endArrow=open;endSize=12;dashed=1;html=1;exitX=0.7;exitY=0.988;exitDx=0;exitDy=0;exitPerimeter=0;" parent="1" source="U3qUNjxuQkbeGoizrf5r-4" target="U3qUNjxuQkbeGoizrf5r-14" edge="1">
          <mxGeometry width="160" relative="1" as="geometry">
            <mxPoint x="270" y="520" as="sourcePoint" />
            <mxPoint x="430" y="520" as="targetPoint" />
            <Array as="points" />
          </mxGeometry>
        </mxCell>
        <mxCell id="BxDGFGfUNUaw4Dc7n88b-5" value="Use" style="endArrow=open;endSize=12;dashed=1;html=1;exitX=1;exitY=1;exitDx=0;exitDy=0;" parent="1" source="U3qUNjxuQkbeGoizrf5r-4" target="bLmz7B3Nk2e7vl_uy4dI-3" edge="1">
          <mxGeometry width="160" relative="1" as="geometry">
            <mxPoint x="320" y="240" as="sourcePoint" />
            <mxPoint x="320" y="400" as="targetPoint" />
            <Array as="points" />
          </mxGeometry>
        </mxCell>
        <mxCell id="azmzK9K6bDNKoFpOMpuD-1" value="Odlučivanje o nastavku igre" style="ellipse;whiteSpace=wrap;html=1;" parent="1" vertex="1">
          <mxGeometry x="534.96" y="276" width="120" height="80" as="geometry" />
        </mxCell>
        <mxCell id="azmzK9K6bDNKoFpOMpuD-2" value="Use" style="endArrow=open;endSize=12;dashed=1;html=1;exitX=0.983;exitY=0.65;exitDx=0;exitDy=0;exitPerimeter=0;" parent="1" source="U3qUNjxuQkbeGoizrf5r-4" target="azmzK9K6bDNKoFpOMpuD-1" edge="1">
          <mxGeometry width="160" relative="1" as="geometry">
            <mxPoint x="460" y="160" as="sourcePoint" />
            <mxPoint x="464.96000000000004" y="306" as="targetPoint" />
            <Array as="points" />
          </mxGeometry>
        </mxCell>
        <mxCell id="DKTZTfUrDaVo7V1SpmRv-1" value="Ponovno pokretanje igre" style="ellipse;whiteSpace=wrap;html=1;" parent="1" vertex="1">
          <mxGeometry x="54.95999999999998" y="486" width="120" height="80" as="geometry" />
        </mxCell>
        <mxCell id="DKTZTfUrDaVo7V1SpmRv-2" value="Use" style="endArrow=open;endSize=12;dashed=1;html=1;exitX=0;exitY=1;exitDx=0;exitDy=0;" parent="1" source="U3qUNjxuQkbeGoizrf5r-4" target="DKTZTfUrDaVo7V1SpmRv-1" edge="1">
          <mxGeometry width="160" relative="1" as="geometry">
            <mxPoint x="-20.000000000000057" y="370" as="sourcePoint" />
            <mxPoint x="-15.04000000000002" y="516" as="targetPoint" />
            <Array as="points" />
          </mxGeometry>
        </mxCell>
      </root>
    </mxGraphModel>
  </diagram>
  <diagram id="vCeEjB3Uo33XLTGWB4F1" name="Activity: Igranje Milijunaša">
    <mxGraphModel dx="1102" dy="566" grid="1" gridSize="10" guides="1" tooltips="1" connect="1" arrows="1" fold="1" page="1" pageScale="1" pageWidth="827" pageHeight="1169" math="0" shadow="0">
      <root>
        <mxCell id="U8XvsfBzKHCRmd6v5OIx-0" />
        <mxCell id="U8XvsfBzKHCRmd6v5OIx-1" parent="U8XvsfBzKHCRmd6v5OIx-0" />
        <mxCell id="q1W7Yeg7VxAJpQKQyP2b-1" value="Unos igrača" style="rounded=1;whiteSpace=wrap;html=1;arcSize=40;fontColor=#000000;fillColor=#ffffc0;strokeColor=#ff0000;" parent="U8XvsfBzKHCRmd6v5OIx-1" vertex="1">
          <mxGeometry x="330" y="120" width="120" height="40" as="geometry" />
        </mxCell>
        <mxCell id="q1W7Yeg7VxAJpQKQyP2b-2" value="" style="edgeStyle=orthogonalEdgeStyle;html=1;verticalAlign=bottom;endArrow=open;endSize=8;strokeColor=#ff0000;" parent="U8XvsfBzKHCRmd6v5OIx-1" source="q1W7Yeg7VxAJpQKQyP2b-1" edge="1">
          <mxGeometry relative="1" as="geometry">
            <mxPoint x="390" y="220" as="targetPoint" />
          </mxGeometry>
        </mxCell>
        <mxCell id="q1W7Yeg7VxAJpQKQyP2b-3" value="Postavljanje pitanja" style="rounded=1;whiteSpace=wrap;html=1;arcSize=40;fontColor=#000000;fillColor=#ffffc0;strokeColor=#ff0000;" parent="U8XvsfBzKHCRmd6v5OIx-1" vertex="1">
          <mxGeometry x="330" y="220" width="120" height="40" as="geometry" />
        </mxCell>
        <mxCell id="q1W7Yeg7VxAJpQKQyP2b-4" value="" style="edgeStyle=orthogonalEdgeStyle;html=1;verticalAlign=bottom;endArrow=open;endSize=8;strokeColor=#ff0000;" parent="U8XvsfBzKHCRmd6v5OIx-1" source="q1W7Yeg7VxAJpQKQyP2b-3" edge="1">
          <mxGeometry relative="1" as="geometry">
            <mxPoint x="390" y="320" as="targetPoint" />
          </mxGeometry>
        </mxCell>
        <mxCell id="q1W7Yeg7VxAJpQKQyP2b-5" value="Odlučivanje o nastavku igre" style="rounded=1;whiteSpace=wrap;html=1;arcSize=40;fontColor=#000000;fillColor=#ffffc0;strokeColor=#ff0000;" parent="U8XvsfBzKHCRmd6v5OIx-1" vertex="1">
          <mxGeometry x="300" y="320" width="185" height="50" as="geometry" />
        </mxCell>
        <mxCell id="q1W7Yeg7VxAJpQKQyP2b-6" value="" style="edgeStyle=orthogonalEdgeStyle;html=1;verticalAlign=bottom;endArrow=open;endSize=8;strokeColor=#ff0000;" parent="U8XvsfBzKHCRmd6v5OIx-1" edge="1">
          <mxGeometry relative="1" as="geometry">
            <mxPoint x="390" y="420" as="targetPoint" />
            <mxPoint x="390" y="370" as="sourcePoint" />
          </mxGeometry>
        </mxCell>
        <mxCell id="q1W7Yeg7VxAJpQKQyP2b-7" value="" style="rhombus;whiteSpace=wrap;html=1;fillColor=#ffffc0;strokeColor=#ff0000;" parent="U8XvsfBzKHCRmd6v5OIx-1" vertex="1">
          <mxGeometry x="335" y="420" width="110" height="90" as="geometry" />
        </mxCell>
        <mxCell id="q1W7Yeg7VxAJpQKQyP2b-8" value="" style="edgeStyle=orthogonalEdgeStyle;html=1;align=left;verticalAlign=bottom;endArrow=open;endSize=8;strokeColor=#ff0000;" parent="U8XvsfBzKHCRmd6v5OIx-1" source="q1W7Yeg7VxAJpQKQyP2b-7" edge="1">
          <mxGeometry x="-0.7391" y="55" relative="1" as="geometry">
            <mxPoint x="600" y="465" as="targetPoint" />
            <Array as="points">
              <mxPoint x="500" y="465" />
              <mxPoint x="500" y="465" />
            </Array>
            <mxPoint as="offset" />
          </mxGeometry>
        </mxCell>
        <mxCell id="q1W7Yeg7VxAJpQKQyP2b-9" value="" style="edgeStyle=orthogonalEdgeStyle;html=1;align=left;verticalAlign=top;endArrow=open;endSize=8;strokeColor=#ff0000;" parent="U8XvsfBzKHCRmd6v5OIx-1" source="q1W7Yeg7VxAJpQKQyP2b-7" edge="1">
          <mxGeometry x="-1" relative="1" as="geometry">
            <mxPoint x="390" y="700" as="targetPoint" />
            <Array as="points">
              <mxPoint x="390" y="700" />
            </Array>
          </mxGeometry>
        </mxCell>
        <mxCell id="q1W7Yeg7VxAJpQKQyP2b-11" value="" style="edgeStyle=orthogonalEdgeStyle;html=1;align=left;verticalAlign=bottom;endArrow=open;endSize=8;strokeColor=#ff0000;exitX=0;exitY=0.5;exitDx=0;exitDy=0;entryX=0.5;entryY=0;entryDx=0;entryDy=0;" parent="U8XvsfBzKHCRmd6v5OIx-1" source="q1W7Yeg7VxAJpQKQyP2b-7" target="q1W7Yeg7VxAJpQKQyP2b-18" edge="1">
          <mxGeometry x="-0.375" y="-50" relative="1" as="geometry">
            <mxPoint x="100" y="465" as="targetPoint" />
            <mxPoint x="250" y="460" as="sourcePoint" />
            <Array as="points">
              <mxPoint x="140" y="465" />
            </Array>
            <mxPoint as="offset" />
          </mxGeometry>
        </mxCell>
        <mxCell id="q1W7Yeg7VxAJpQKQyP2b-12" value="[Igrač odgovara na pitanje]" style="text;html=1;align=center;verticalAlign=middle;resizable=0;points=[];autosize=1;" parent="U8XvsfBzKHCRmd6v5OIx-1" vertex="1">
          <mxGeometry x="150" y="440" width="160" height="20" as="geometry" />
        </mxCell>
        <mxCell id="q1W7Yeg7VxAJpQKQyP2b-13" value="[Igrač je odustao]" style="text;html=1;align=center;verticalAlign=middle;resizable=0;points=[];autosize=1;" parent="U8XvsfBzKHCRmd6v5OIx-1" vertex="1">
          <mxGeometry x="390" y="550" width="110" height="20" as="geometry" />
        </mxCell>
        <mxCell id="q1W7Yeg7VxAJpQKQyP2b-14" value="[Igrač odabrao jockera]" style="text;html=1;align=center;verticalAlign=middle;resizable=0;points=[];autosize=1;" parent="U8XvsfBzKHCRmd6v5OIx-1" vertex="1">
          <mxGeometry x="445" y="440" width="140" height="20" as="geometry" />
        </mxCell>
        <mxCell id="q1W7Yeg7VxAJpQKQyP2b-18" value="Odgovaranje na pitanje" style="rounded=1;whiteSpace=wrap;html=1;arcSize=40;fontColor=#000000;fillColor=#ffffc0;strokeColor=#ff0000;" parent="U8XvsfBzKHCRmd6v5OIx-1" vertex="1">
          <mxGeometry x="80" y="500" width="120" height="40" as="geometry" />
        </mxCell>
        <mxCell id="q1W7Yeg7VxAJpQKQyP2b-19" value="" style="edgeStyle=orthogonalEdgeStyle;html=1;verticalAlign=bottom;endArrow=open;endSize=8;strokeColor=#ff0000;" parent="U8XvsfBzKHCRmd6v5OIx-1" source="q1W7Yeg7VxAJpQKQyP2b-18" edge="1">
          <mxGeometry relative="1" as="geometry">
            <mxPoint x="140" y="600" as="targetPoint" />
          </mxGeometry>
        </mxCell>
        <mxCell id="q1W7Yeg7VxAJpQKQyP2b-20" value="" style="rhombus;whiteSpace=wrap;html=1;fillColor=#ffffc0;strokeColor=#ff0000;" parent="U8XvsfBzKHCRmd6v5OIx-1" vertex="1">
          <mxGeometry x="100" y="600" width="80" height="40" as="geometry" />
        </mxCell>
        <mxCell id="q1W7Yeg7VxAJpQKQyP2b-21" value="" style="edgeStyle=orthogonalEdgeStyle;html=1;align=left;verticalAlign=bottom;endArrow=open;endSize=8;strokeColor=#ff0000;" parent="U8XvsfBzKHCRmd6v5OIx-1" source="q1W7Yeg7VxAJpQKQyP2b-20" target="q1W7Yeg7VxAJpQKQyP2b-28" edge="1">
          <mxGeometry x="-1" relative="1" as="geometry">
            <mxPoint x="320" y="680" as="targetPoint" />
          </mxGeometry>
        </mxCell>
        <mxCell id="q1W7Yeg7VxAJpQKQyP2b-22" value="" style="edgeStyle=orthogonalEdgeStyle;html=1;align=left;verticalAlign=top;endArrow=open;endSize=8;strokeColor=#ff0000;" parent="U8XvsfBzKHCRmd6v5OIx-1" source="q1W7Yeg7VxAJpQKQyP2b-20" edge="1">
          <mxGeometry x="-1" relative="1" as="geometry">
            <mxPoint x="140" y="700" as="targetPoint" />
          </mxGeometry>
        </mxCell>
        <mxCell id="q1W7Yeg7VxAJpQKQyP2b-26" value="[Odgovor&amp;nbsp; točan]" style="text;html=1;align=center;verticalAlign=middle;resizable=0;points=[];autosize=1;" parent="U8XvsfBzKHCRmd6v5OIx-1" vertex="1">
          <mxGeometry x="140" y="640" width="100" height="20" as="geometry" />
        </mxCell>
        <mxCell id="q1W7Yeg7VxAJpQKQyP2b-27" value="[Odgovor nije točan]" style="text;html=1;align=center;verticalAlign=middle;resizable=0;points=[];autosize=1;" parent="U8XvsfBzKHCRmd6v5OIx-1" vertex="1">
          <mxGeometry x="180" y="590" width="120" height="20" as="geometry" />
        </mxCell>
        <mxCell id="q1W7Yeg7VxAJpQKQyP2b-28" value="Izračun osvojenog iznosa" style="rounded=1;whiteSpace=wrap;html=1;arcSize=40;fontColor=#000000;fillColor=#ffffc0;strokeColor=#ff0000;" parent="U8XvsfBzKHCRmd6v5OIx-1" vertex="1">
          <mxGeometry x="300" y="700" width="120" height="40" as="geometry" />
        </mxCell>
        <mxCell id="q1W7Yeg7VxAJpQKQyP2b-30" value="" style="edgeStyle=orthogonalEdgeStyle;html=1;verticalAlign=bottom;endArrow=open;endSize=8;strokeColor=#ff0000;" parent="U8XvsfBzKHCRmd6v5OIx-1" edge="1">
          <mxGeometry relative="1" as="geometry">
            <mxPoint x="354" y="780" as="targetPoint" />
            <mxPoint x="353.5" y="740" as="sourcePoint" />
            <Array as="points">
              <mxPoint x="354" y="760" />
              <mxPoint x="354" y="760" />
            </Array>
          </mxGeometry>
        </mxCell>
        <mxCell id="q1W7Yeg7VxAJpQKQyP2b-34" value="" style="ellipse;html=1;shape=startState;fillColor=#000000;strokeColor=#ff0000;" parent="U8XvsfBzKHCRmd6v5OIx-1" vertex="1">
          <mxGeometry x="375" y="30" width="30" height="30" as="geometry" />
        </mxCell>
        <mxCell id="q1W7Yeg7VxAJpQKQyP2b-35" value="" style="edgeStyle=orthogonalEdgeStyle;html=1;verticalAlign=bottom;endArrow=open;endSize=8;strokeColor=#ff0000;" parent="U8XvsfBzKHCRmd6v5OIx-1" source="q1W7Yeg7VxAJpQKQyP2b-34" edge="1">
          <mxGeometry relative="1" as="geometry">
            <mxPoint x="390" y="120" as="targetPoint" />
          </mxGeometry>
        </mxCell>
        <mxCell id="q1W7Yeg7VxAJpQKQyP2b-38" value="Korištenje jockera" style="rounded=1;whiteSpace=wrap;html=1;arcSize=40;fontColor=#000000;fillColor=#ffffc0;strokeColor=#ff0000;" parent="U8XvsfBzKHCRmd6v5OIx-1" vertex="1">
          <mxGeometry x="600" y="440" width="120" height="40" as="geometry" />
        </mxCell>
        <mxCell id="q1W7Yeg7VxAJpQKQyP2b-39" value="" style="edgeStyle=orthogonalEdgeStyle;html=1;verticalAlign=bottom;endArrow=open;endSize=8;strokeColor=#ff0000;entryX=1;entryY=0.5;entryDx=0;entryDy=0;" parent="U8XvsfBzKHCRmd6v5OIx-1" source="q1W7Yeg7VxAJpQKQyP2b-38" target="q1W7Yeg7VxAJpQKQyP2b-3" edge="1">
          <mxGeometry relative="1" as="geometry">
            <mxPoint x="650" y="130" as="targetPoint" />
            <Array as="points">
              <mxPoint x="760" y="460" />
              <mxPoint x="760" y="240" />
            </Array>
          </mxGeometry>
        </mxCell>
        <mxCell id="q1W7Yeg7VxAJpQKQyP2b-40" value="" style="rhombus;whiteSpace=wrap;html=1;fillColor=#ffffc0;strokeColor=#ff0000;" parent="U8XvsfBzKHCRmd6v5OIx-1" vertex="1">
          <mxGeometry x="100" y="700" width="80" height="40" as="geometry" />
        </mxCell>
        <mxCell id="q1W7Yeg7VxAJpQKQyP2b-41" value="" style="edgeStyle=orthogonalEdgeStyle;html=1;align=left;verticalAlign=bottom;endArrow=open;endSize=8;strokeColor=#ff0000;" parent="U8XvsfBzKHCRmd6v5OIx-1" source="q1W7Yeg7VxAJpQKQyP2b-40" edge="1">
          <mxGeometry x="-1" relative="1" as="geometry">
            <mxPoint x="300" y="720" as="targetPoint" />
          </mxGeometry>
        </mxCell>
        <mxCell id="q1W7Yeg7VxAJpQKQyP2b-43" value="" style="edgeStyle=orthogonalEdgeStyle;html=1;align=left;verticalAlign=bottom;endArrow=open;endSize=8;strokeColor=#ff0000;entryX=0;entryY=0.5;entryDx=0;entryDy=0;" parent="U8XvsfBzKHCRmd6v5OIx-1" target="q1W7Yeg7VxAJpQKQyP2b-3" edge="1">
          <mxGeometry x="-1" relative="1" as="geometry">
            <mxPoint x="10" y="220" as="targetPoint" />
            <mxPoint x="100" y="719.5" as="sourcePoint" />
            <Array as="points">
              <mxPoint x="20" y="720" />
              <mxPoint x="20" y="240" />
            </Array>
          </mxGeometry>
        </mxCell>
        <mxCell id="q1W7Yeg7VxAJpQKQyP2b-44" value="[Pitanje nije zadnje]" style="text;html=1;align=center;verticalAlign=middle;resizable=0;points=[];autosize=1;" parent="U8XvsfBzKHCRmd6v5OIx-1" vertex="1">
          <mxGeometry x="20" y="680" width="120" height="20" as="geometry" />
        </mxCell>
        <mxCell id="q1W7Yeg7VxAJpQKQyP2b-45" value="[Pitanje je zadnje]" style="text;html=1;align=center;verticalAlign=middle;resizable=0;points=[];autosize=1;" parent="U8XvsfBzKHCRmd6v5OIx-1" vertex="1">
          <mxGeometry x="170" y="690" width="110" height="20" as="geometry" />
        </mxCell>
        <mxCell id="S7CAgQfMehN5hUvER7fp-0" value="Ponovno pokretanje igre" style="rounded=1;whiteSpace=wrap;html=1;arcSize=40;fontColor=#000000;fillColor=#ffffc0;strokeColor=#ff0000;" parent="U8XvsfBzKHCRmd6v5OIx-1" vertex="1">
          <mxGeometry x="270" y="780" width="166" height="40" as="geometry" />
        </mxCell>
        <mxCell id="S7CAgQfMehN5hUvER7fp-1" value="" style="edgeStyle=orthogonalEdgeStyle;html=1;verticalAlign=bottom;endArrow=open;endSize=8;strokeColor=#ff0000;" parent="U8XvsfBzKHCRmd6v5OIx-1" edge="1">
          <mxGeometry relative="1" as="geometry">
            <mxPoint x="351" y="990" as="targetPoint" />
            <mxPoint x="351" y="920" as="sourcePoint" />
            <Array as="points">
              <mxPoint x="351" y="930" />
              <mxPoint x="351" y="930" />
            </Array>
          </mxGeometry>
        </mxCell>
        <mxCell id="S7CAgQfMehN5hUvER7fp-2" value="" style="ellipse;html=1;shape=endState;fillColor=#000000;strokeColor=#ff0000;" parent="U8XvsfBzKHCRmd6v5OIx-1" vertex="1">
          <mxGeometry x="335" y="990" width="30" height="30" as="geometry" />
        </mxCell>
        <mxCell id="S7CAgQfMehN5hUvER7fp-5" value="" style="edgeStyle=orthogonalEdgeStyle;html=1;verticalAlign=bottom;endArrow=open;endSize=8;strokeColor=#ff0000;exitX=1;exitY=0.5;exitDx=0;exitDy=0;entryX=1;entryY=0.5;entryDx=0;entryDy=0;" parent="U8XvsfBzKHCRmd6v5OIx-1" source="S7CAgQfMehN5hUvER7fp-0" target="q1W7Yeg7VxAJpQKQyP2b-1" edge="1">
          <mxGeometry relative="1" as="geometry">
            <mxPoint x="810" y="110" as="targetPoint" />
            <mxPoint x="610" y="575" as="sourcePoint" />
            <Array as="points">
              <mxPoint x="780" y="800" />
              <mxPoint x="780" y="140" />
            </Array>
          </mxGeometry>
        </mxCell>
        <mxCell id="UjgNrzGkjXRTHX-QWwsJ-0" value="" style="rhombus;whiteSpace=wrap;html=1;fillColor=#ffffc0;strokeColor=#ff0000;" parent="U8XvsfBzKHCRmd6v5OIx-1" vertex="1">
          <mxGeometry x="310" y="880" width="80" height="40" as="geometry" />
        </mxCell>
        <mxCell id="UjgNrzGkjXRTHX-QWwsJ-1" value="" style="edgeStyle=orthogonalEdgeStyle;html=1;align=left;verticalAlign=bottom;endArrow=open;endSize=8;strokeColor=#ff0000;entryX=1;entryY=0.25;entryDx=0;entryDy=0;" parent="U8XvsfBzKHCRmd6v5OIx-1" source="UjgNrzGkjXRTHX-QWwsJ-0" target="q1W7Yeg7VxAJpQKQyP2b-1" edge="1">
          <mxGeometry x="-1" relative="1" as="geometry">
            <mxPoint x="800" y="130" as="targetPoint" />
            <Array as="points">
              <mxPoint x="800" y="900" />
              <mxPoint x="800" y="130" />
            </Array>
          </mxGeometry>
        </mxCell>
        <mxCell id="UjgNrzGkjXRTHX-QWwsJ-3" value="" style="edgeStyle=orthogonalEdgeStyle;html=1;align=left;verticalAlign=top;endArrow=open;endSize=8;strokeColor=#ff0000;exitX=0.5;exitY=1;exitDx=0;exitDy=0;" parent="U8XvsfBzKHCRmd6v5OIx-1" source="S7CAgQfMehN5hUvER7fp-0" edge="1">
          <mxGeometry x="-1" relative="1" as="geometry">
            <mxPoint x="350" y="880" as="targetPoint" />
            <mxPoint x="350" y="920" as="sourcePoint" />
            <Array as="points">
              <mxPoint x="350" y="820" />
            </Array>
          </mxGeometry>
        </mxCell>
        <mxCell id="UjgNrzGkjXRTHX-QWwsJ-4" value="[Kraj]" style="text;html=1;align=center;verticalAlign=middle;resizable=0;points=[];autosize=1;" parent="U8XvsfBzKHCRmd6v5OIx-1" vertex="1">
          <mxGeometry x="300" y="930" width="40" height="20" as="geometry" />
        </mxCell>
        <mxCell id="UjgNrzGkjXRTHX-QWwsJ-5" value="[Ponovno pokreni]" style="text;html=1;align=center;verticalAlign=middle;resizable=0;points=[];autosize=1;" parent="U8XvsfBzKHCRmd6v5OIx-1" vertex="1">
          <mxGeometry x="390" y="870" width="110" height="20" as="geometry" />
        </mxCell>
      </root>
    </mxGraphModel>
  </diagram>
  <diagram id="Yc40d4N4IwUVGXFzNLAM" name="Dijagram aktivnosti s podaktivnostima igranja Milijunaša">
    <mxGraphModel dx="1102" dy="566" grid="1" gridSize="10" guides="1" tooltips="1" connect="1" arrows="1" fold="1" page="1" pageScale="1" pageWidth="827" pageHeight="1169" math="0" shadow="0">
      <root>
        <mxCell id="gJ3oTAKAnC5Qf_iSqITV-0" />
        <mxCell id="gJ3oTAKAnC5Qf_iSqITV-1" parent="gJ3oTAKAnC5Qf_iSqITV-0" />
        <mxCell id="0TBMyG8cFXZNtV9J-5kE-6" value="" style="rhombus;whiteSpace=wrap;html=1;fillColor=#ffffc0;strokeColor=#ff0000;" parent="gJ3oTAKAnC5Qf_iSqITV-1" vertex="1">
          <mxGeometry x="335" y="420" width="110" height="90" as="geometry" />
        </mxCell>
        <mxCell id="0TBMyG8cFXZNtV9J-5kE-7" value="" style="edgeStyle=orthogonalEdgeStyle;html=1;align=left;verticalAlign=bottom;endArrow=open;endSize=8;strokeColor=#ff0000;" parent="gJ3oTAKAnC5Qf_iSqITV-1" source="0TBMyG8cFXZNtV9J-5kE-6" edge="1">
          <mxGeometry x="-0.7391" y="55" relative="1" as="geometry">
            <mxPoint x="600" y="465" as="targetPoint" />
            <Array as="points">
              <mxPoint x="500" y="465" />
              <mxPoint x="500" y="465" />
            </Array>
            <mxPoint as="offset" />
          </mxGeometry>
        </mxCell>
        <mxCell id="0TBMyG8cFXZNtV9J-5kE-8" value="" style="edgeStyle=orthogonalEdgeStyle;html=1;align=left;verticalAlign=top;endArrow=open;endSize=8;strokeColor=#ff0000;" parent="gJ3oTAKAnC5Qf_iSqITV-1" source="0TBMyG8cFXZNtV9J-5kE-6" edge="1">
          <mxGeometry x="-1" relative="1" as="geometry">
            <mxPoint x="390" y="700" as="targetPoint" />
            <Array as="points">
              <mxPoint x="390" y="700" />
            </Array>
          </mxGeometry>
        </mxCell>
        <mxCell id="0TBMyG8cFXZNtV9J-5kE-9" value="" style="edgeStyle=orthogonalEdgeStyle;html=1;align=left;verticalAlign=bottom;endArrow=open;endSize=8;strokeColor=#ff0000;exitX=0;exitY=0.5;exitDx=0;exitDy=0;entryX=0.5;entryY=0;entryDx=0;entryDy=0;" parent="gJ3oTAKAnC5Qf_iSqITV-1" source="0TBMyG8cFXZNtV9J-5kE-6" edge="1">
          <mxGeometry x="-0.375" y="-50" relative="1" as="geometry">
            <mxPoint x="140" y="500" as="targetPoint" />
            <mxPoint x="250" y="460" as="sourcePoint" />
            <Array as="points">
              <mxPoint x="140" y="465" />
            </Array>
            <mxPoint as="offset" />
          </mxGeometry>
        </mxCell>
        <mxCell id="0TBMyG8cFXZNtV9J-5kE-10" value="[Igrač odgovara na pitanje]" style="text;html=1;align=center;verticalAlign=middle;resizable=0;points=[];autosize=1;" parent="gJ3oTAKAnC5Qf_iSqITV-1" vertex="1">
          <mxGeometry x="150" y="440" width="160" height="20" as="geometry" />
        </mxCell>
        <mxCell id="0TBMyG8cFXZNtV9J-5kE-11" value="[Igrač je odustao]" style="text;html=1;align=center;verticalAlign=middle;resizable=0;points=[];autosize=1;" parent="gJ3oTAKAnC5Qf_iSqITV-1" vertex="1">
          <mxGeometry x="390" y="550" width="110" height="20" as="geometry" />
        </mxCell>
        <mxCell id="0TBMyG8cFXZNtV9J-5kE-12" value="[Igrač odabrao jockera]" style="text;html=1;align=center;verticalAlign=middle;resizable=0;points=[];autosize=1;" parent="gJ3oTAKAnC5Qf_iSqITV-1" vertex="1">
          <mxGeometry x="445" y="440" width="140" height="20" as="geometry" />
        </mxCell>
        <mxCell id="0TBMyG8cFXZNtV9J-5kE-15" value="" style="rhombus;whiteSpace=wrap;html=1;fillColor=#ffffc0;strokeColor=#ff0000;" parent="gJ3oTAKAnC5Qf_iSqITV-1" vertex="1">
          <mxGeometry x="100" y="600" width="80" height="40" as="geometry" />
        </mxCell>
        <mxCell id="0TBMyG8cFXZNtV9J-5kE-16" value="" style="edgeStyle=orthogonalEdgeStyle;html=1;align=left;verticalAlign=bottom;endArrow=open;endSize=8;strokeColor=#ff0000;" parent="gJ3oTAKAnC5Qf_iSqITV-1" source="0TBMyG8cFXZNtV9J-5kE-15" edge="1">
          <mxGeometry x="-1" relative="1" as="geometry">
            <mxPoint x="360" y="700" as="targetPoint" />
          </mxGeometry>
        </mxCell>
        <mxCell id="0TBMyG8cFXZNtV9J-5kE-17" value="" style="edgeStyle=orthogonalEdgeStyle;html=1;align=left;verticalAlign=top;endArrow=open;endSize=8;strokeColor=#ff0000;" parent="gJ3oTAKAnC5Qf_iSqITV-1" source="0TBMyG8cFXZNtV9J-5kE-15" edge="1">
          <mxGeometry x="-1" relative="1" as="geometry">
            <mxPoint x="140" y="700" as="targetPoint" />
          </mxGeometry>
        </mxCell>
        <mxCell id="0TBMyG8cFXZNtV9J-5kE-18" value="[Odgovor&amp;nbsp; točan]" style="text;html=1;align=center;verticalAlign=middle;resizable=0;points=[];autosize=1;" parent="gJ3oTAKAnC5Qf_iSqITV-1" vertex="1">
          <mxGeometry x="140" y="640" width="100" height="20" as="geometry" />
        </mxCell>
        <mxCell id="0TBMyG8cFXZNtV9J-5kE-19" value="[Odgovor nije točan]" style="text;html=1;align=center;verticalAlign=middle;resizable=0;points=[];autosize=1;" parent="gJ3oTAKAnC5Qf_iSqITV-1" vertex="1">
          <mxGeometry x="180" y="590" width="120" height="20" as="geometry" />
        </mxCell>
        <mxCell id="0TBMyG8cFXZNtV9J-5kE-21" value="" style="edgeStyle=orthogonalEdgeStyle;html=1;verticalAlign=bottom;endArrow=open;endSize=8;strokeColor=#ff0000;" parent="gJ3oTAKAnC5Qf_iSqITV-1" edge="1">
          <mxGeometry relative="1" as="geometry">
            <mxPoint x="380" y="820" as="targetPoint" />
            <mxPoint x="379.5" y="760" as="sourcePoint" />
            <Array as="points">
              <mxPoint x="380" y="770" />
              <mxPoint x="380" y="770" />
            </Array>
          </mxGeometry>
        </mxCell>
        <mxCell id="0TBMyG8cFXZNtV9J-5kE-23" value="" style="ellipse;html=1;shape=startState;fillColor=#000000;strokeColor=#ff0000;" parent="gJ3oTAKAnC5Qf_iSqITV-1" vertex="1">
          <mxGeometry x="375" y="30" width="30" height="30" as="geometry" />
        </mxCell>
        <mxCell id="0TBMyG8cFXZNtV9J-5kE-24" value="" style="edgeStyle=orthogonalEdgeStyle;html=1;verticalAlign=bottom;endArrow=open;endSize=8;strokeColor=#ff0000;" parent="gJ3oTAKAnC5Qf_iSqITV-1" source="0TBMyG8cFXZNtV9J-5kE-23" edge="1">
          <mxGeometry relative="1" as="geometry">
            <mxPoint x="390" y="120" as="targetPoint" />
          </mxGeometry>
        </mxCell>
        <mxCell id="0TBMyG8cFXZNtV9J-5kE-27" value="" style="rhombus;whiteSpace=wrap;html=1;fillColor=#ffffc0;strokeColor=#ff0000;" parent="gJ3oTAKAnC5Qf_iSqITV-1" vertex="1">
          <mxGeometry x="100" y="700" width="80" height="40" as="geometry" />
        </mxCell>
        <mxCell id="0TBMyG8cFXZNtV9J-5kE-28" value="" style="edgeStyle=orthogonalEdgeStyle;html=1;align=left;verticalAlign=bottom;endArrow=open;endSize=8;strokeColor=#ff0000;" parent="gJ3oTAKAnC5Qf_iSqITV-1" source="0TBMyG8cFXZNtV9J-5kE-27" edge="1">
          <mxGeometry x="-1" relative="1" as="geometry">
            <mxPoint x="300" y="720" as="targetPoint" />
          </mxGeometry>
        </mxCell>
        <mxCell id="0TBMyG8cFXZNtV9J-5kE-29" value="" style="edgeStyle=orthogonalEdgeStyle;html=1;align=left;verticalAlign=bottom;endArrow=open;endSize=8;strokeColor=#ff0000;entryX=0;entryY=0.25;entryDx=0;entryDy=0;" parent="gJ3oTAKAnC5Qf_iSqITV-1" target="ew7yDK1h5g2nsMWurNut-0" edge="1">
          <mxGeometry x="-1" relative="1" as="geometry">
            <mxPoint x="290" y="240" as="targetPoint" />
            <mxPoint x="100" y="719.5" as="sourcePoint" />
            <Array as="points">
              <mxPoint x="20" y="720" />
              <mxPoint x="20" y="235" />
            </Array>
          </mxGeometry>
        </mxCell>
        <mxCell id="0TBMyG8cFXZNtV9J-5kE-30" value="[Pitanje nije zadnje]" style="text;html=1;align=center;verticalAlign=middle;resizable=0;points=[];autosize=1;" parent="gJ3oTAKAnC5Qf_iSqITV-1" vertex="1">
          <mxGeometry x="20" y="680" width="120" height="20" as="geometry" />
        </mxCell>
        <mxCell id="0TBMyG8cFXZNtV9J-5kE-31" value="[Pitanje je zadnje]" style="text;html=1;align=center;verticalAlign=middle;resizable=0;points=[];autosize=1;" parent="gJ3oTAKAnC5Qf_iSqITV-1" vertex="1">
          <mxGeometry x="170" y="690" width="110" height="20" as="geometry" />
        </mxCell>
        <mxCell id="M0TCyav9yBUAygvhkK0y-0" value="Unos igrača" style="swimlane;html=1;fontStyle=1;align=center;verticalAlign=middle;childLayout=stackLayout;horizontal=1;startSize=30;horizontalStack=0;resizeParent=0;resizeLast=1;container=0;fontColor=#000000;collapsible=0;rounded=1;arcSize=30;strokeColor=#ff0000;fillColor=#ffffc0;swimlaneFillColor=#ffffc0;dropTarget=0;" parent="gJ3oTAKAnC5Qf_iSqITV-1" vertex="1">
          <mxGeometry x="310" y="120" width="160" height="60" as="geometry" />
        </mxCell>
        <mxCell id="M0TCyav9yBUAygvhkK0y-1" value="Include / Unos igrača" style="text;html=1;strokeColor=none;fillColor=none;align=center;verticalAlign=middle;spacingLeft=4;spacingRight=4;whiteSpace=wrap;overflow=hidden;rotatable=0;fontColor=#000000;" parent="M0TCyav9yBUAygvhkK0y-0" vertex="1">
          <mxGeometry y="30" width="160" height="30" as="geometry" />
        </mxCell>
        <mxCell id="M0TCyav9yBUAygvhkK0y-2" value="" style="edgeStyle=orthogonalEdgeStyle;html=1;verticalAlign=bottom;endArrow=open;endSize=8;strokeColor=#ff0000;entryX=0.5;entryY=0;entryDx=0;entryDy=0;" parent="gJ3oTAKAnC5Qf_iSqITV-1" source="M0TCyav9yBUAygvhkK0y-0" edge="1">
          <mxGeometry relative="1" as="geometry">
            <mxPoint x="390" y="220" as="targetPoint" />
            <Array as="points" />
          </mxGeometry>
        </mxCell>
        <mxCell id="ew7yDK1h5g2nsMWurNut-0" value="Postavljenje pitanja" style="swimlane;html=1;fontStyle=1;align=center;verticalAlign=middle;childLayout=stackLayout;horizontal=1;startSize=30;horizontalStack=0;resizeParent=0;resizeLast=1;container=0;fontColor=#000000;collapsible=0;rounded=1;arcSize=30;strokeColor=#ff0000;fillColor=#ffffc0;swimlaneFillColor=#ffffc0;dropTarget=0;" parent="gJ3oTAKAnC5Qf_iSqITV-1" vertex="1">
          <mxGeometry x="310" y="220" width="160" height="60" as="geometry" />
        </mxCell>
        <mxCell id="ew7yDK1h5g2nsMWurNut-1" value="Include / Postavljenje pitanja" style="text;html=1;strokeColor=none;fillColor=none;align=center;verticalAlign=middle;spacingLeft=4;spacingRight=4;whiteSpace=wrap;overflow=hidden;rotatable=0;fontColor=#000000;" parent="ew7yDK1h5g2nsMWurNut-0" vertex="1">
          <mxGeometry y="30" width="160" height="30" as="geometry" />
        </mxCell>
        <mxCell id="ew7yDK1h5g2nsMWurNut-2" value="" style="edgeStyle=orthogonalEdgeStyle;html=1;verticalAlign=bottom;endArrow=open;endSize=8;strokeColor=#ff0000;" parent="gJ3oTAKAnC5Qf_iSqITV-1" source="ew7yDK1h5g2nsMWurNut-0" edge="1">
          <mxGeometry relative="1" as="geometry">
            <mxPoint x="393" y="320" as="targetPoint" />
            <Array as="points">
              <mxPoint x="393" y="300" />
              <mxPoint x="393" y="300" />
            </Array>
          </mxGeometry>
        </mxCell>
        <mxCell id="ew7yDK1h5g2nsMWurNut-5" value="Odlučivanje o nastavku igre" style="swimlane;html=1;fontStyle=1;align=center;verticalAlign=middle;childLayout=stackLayout;horizontal=1;startSize=30;horizontalStack=0;resizeParent=0;resizeLast=1;container=0;fontColor=#000000;collapsible=0;rounded=1;arcSize=30;strokeColor=#ff0000;fillColor=#ffffc0;swimlaneFillColor=#ffffc0;dropTarget=0;" parent="gJ3oTAKAnC5Qf_iSqITV-1" vertex="1">
          <mxGeometry x="275" y="320" width="230" height="60" as="geometry" />
        </mxCell>
        <mxCell id="ew7yDK1h5g2nsMWurNut-6" value="Include / Odlučivanje o nastavku igre" style="text;html=1;strokeColor=none;fillColor=none;align=center;verticalAlign=middle;spacingLeft=4;spacingRight=4;whiteSpace=wrap;overflow=hidden;rotatable=0;fontColor=#000000;" parent="ew7yDK1h5g2nsMWurNut-5" vertex="1">
          <mxGeometry y="30" width="230" height="30" as="geometry" />
        </mxCell>
        <mxCell id="ew7yDK1h5g2nsMWurNut-7" value="" style="edgeStyle=orthogonalEdgeStyle;html=1;verticalAlign=bottom;endArrow=open;endSize=8;strokeColor=#ff0000;exitX=0.5;exitY=1;exitDx=0;exitDy=0;entryX=0.5;entryY=0;entryDx=0;entryDy=0;" parent="gJ3oTAKAnC5Qf_iSqITV-1" source="ew7yDK1h5g2nsMWurNut-6" target="0TBMyG8cFXZNtV9J-5kE-6" edge="1">
          <mxGeometry relative="1" as="geometry">
            <mxPoint x="390" y="460" as="targetPoint" />
            <Array as="points" />
          </mxGeometry>
        </mxCell>
        <mxCell id="ew7yDK1h5g2nsMWurNut-9" value="" style="edgeStyle=orthogonalEdgeStyle;html=1;verticalAlign=bottom;endArrow=open;endSize=8;strokeColor=#ff0000;entryX=1;entryY=0.25;entryDx=0;entryDy=0;exitX=1;exitY=0.167;exitDx=0;exitDy=0;exitPerimeter=0;" parent="gJ3oTAKAnC5Qf_iSqITV-1" source="ew7yDK1h5g2nsMWurNut-11" target="ew7yDK1h5g2nsMWurNut-0" edge="1">
          <mxGeometry relative="1" as="geometry">
            <mxPoint x="590" y="250" as="targetPoint" />
            <mxPoint x="770" y="470" as="sourcePoint" />
            <Array as="points">
              <mxPoint x="800" y="470" />
              <mxPoint x="800" y="235" />
            </Array>
          </mxGeometry>
        </mxCell>
        <mxCell id="ew7yDK1h5g2nsMWurNut-10" value="Korištenje jockera" style="swimlane;html=1;fontStyle=1;align=center;verticalAlign=middle;childLayout=stackLayout;horizontal=1;startSize=30;horizontalStack=0;resizeParent=0;resizeLast=1;container=0;fontColor=#000000;collapsible=0;rounded=1;arcSize=30;strokeColor=#ff0000;fillColor=#ffffc0;swimlaneFillColor=#ffffc0;dropTarget=0;" parent="gJ3oTAKAnC5Qf_iSqITV-1" vertex="1">
          <mxGeometry x="600" y="435" width="160" height="60" as="geometry" />
        </mxCell>
        <mxCell id="ew7yDK1h5g2nsMWurNut-11" value="Include / Korištenje jockera" style="text;html=1;strokeColor=none;fillColor=none;align=center;verticalAlign=middle;spacingLeft=4;spacingRight=4;whiteSpace=wrap;overflow=hidden;rotatable=0;fontColor=#000000;" parent="ew7yDK1h5g2nsMWurNut-10" vertex="1">
          <mxGeometry y="30" width="160" height="30" as="geometry" />
        </mxCell>
        <mxCell id="ew7yDK1h5g2nsMWurNut-15" value="Odgovaranje na pitanje" style="swimlane;html=1;fontStyle=1;align=center;verticalAlign=middle;childLayout=stackLayout;horizontal=1;startSize=30;horizontalStack=0;resizeParent=0;resizeLast=1;container=0;fontColor=#000000;collapsible=0;rounded=1;arcSize=30;strokeColor=#ff0000;fillColor=#ffffc0;swimlaneFillColor=#ffffc0;dropTarget=0;" parent="gJ3oTAKAnC5Qf_iSqITV-1" vertex="1">
          <mxGeometry x="60" y="500" width="160" height="60" as="geometry" />
        </mxCell>
        <mxCell id="ew7yDK1h5g2nsMWurNut-16" value="Include / Odgovaranje na pitanje" style="text;html=1;strokeColor=none;fillColor=none;align=center;verticalAlign=middle;spacingLeft=4;spacingRight=4;whiteSpace=wrap;overflow=hidden;rotatable=0;fontColor=#000000;" parent="ew7yDK1h5g2nsMWurNut-15" vertex="1">
          <mxGeometry y="30" width="160" height="30" as="geometry" />
        </mxCell>
        <mxCell id="ew7yDK1h5g2nsMWurNut-17" value="" style="edgeStyle=orthogonalEdgeStyle;html=1;verticalAlign=bottom;endArrow=open;endSize=8;strokeColor=#ff0000;" parent="gJ3oTAKAnC5Qf_iSqITV-1" source="ew7yDK1h5g2nsMWurNut-15" edge="1">
          <mxGeometry relative="1" as="geometry">
            <mxPoint x="140" y="600" as="targetPoint" />
          </mxGeometry>
        </mxCell>
        <mxCell id="ew7yDK1h5g2nsMWurNut-18" value="Izračun osvojenog iznosa" style="swimlane;html=1;fontStyle=1;align=center;verticalAlign=middle;childLayout=stackLayout;horizontal=1;startSize=30;horizontalStack=0;resizeParent=0;resizeLast=1;container=0;fontColor=#000000;collapsible=0;rounded=1;arcSize=30;strokeColor=#ff0000;fillColor=#ffffc0;swimlaneFillColor=#ffffc0;dropTarget=0;" parent="gJ3oTAKAnC5Qf_iSqITV-1" vertex="1">
          <mxGeometry x="300" y="700" width="160" height="60" as="geometry" />
        </mxCell>
        <mxCell id="ew7yDK1h5g2nsMWurNut-19" value="Include / Izračun osvojenog iznosa" style="text;html=1;strokeColor=none;fillColor=none;align=center;verticalAlign=middle;spacingLeft=4;spacingRight=4;whiteSpace=wrap;overflow=hidden;rotatable=0;fontColor=#000000;" parent="ew7yDK1h5g2nsMWurNut-18" vertex="1">
          <mxGeometry y="30" width="160" height="30" as="geometry" />
        </mxCell>
        <mxCell id="TvBFIxla1nUB0Fym_cmQ-0" value="Subtitle" style="text;html=1;strokeColor=none;fillColor=none;align=center;verticalAlign=middle;spacingLeft=4;spacingRight=4;whiteSpace=wrap;overflow=hidden;rotatable=0;fontColor=#000000;" parent="ew7yDK1h5g2nsMWurNut-18" vertex="1">
          <mxGeometry y="60" width="160" as="geometry" />
        </mxCell>
        <mxCell id="KleHUVWXG7qDs1t53_0I-0" value="Ponovno pokretanje igre" style="swimlane;html=1;fontStyle=1;align=center;verticalAlign=middle;childLayout=stackLayout;horizontal=1;startSize=30;horizontalStack=0;resizeParent=0;resizeLast=1;container=0;fontColor=#000000;collapsible=0;rounded=1;arcSize=30;strokeColor=#ff0000;fillColor=#ffffc0;swimlaneFillColor=#ffffc0;dropTarget=0;" parent="gJ3oTAKAnC5Qf_iSqITV-1" vertex="1">
          <mxGeometry x="300" y="820" width="190" height="60" as="geometry" />
        </mxCell>
        <mxCell id="KleHUVWXG7qDs1t53_0I-1" value="Include / Ponovno pokretanje igre" style="text;html=1;strokeColor=none;fillColor=none;align=center;verticalAlign=middle;spacingLeft=4;spacingRight=4;whiteSpace=wrap;overflow=hidden;rotatable=0;fontColor=#000000;" parent="KleHUVWXG7qDs1t53_0I-0" vertex="1">
          <mxGeometry y="30" width="190" height="30" as="geometry" />
        </mxCell>
        <mxCell id="KleHUVWXG7qDs1t53_0I-2" value="" style="edgeStyle=orthogonalEdgeStyle;html=1;verticalAlign=bottom;endArrow=open;endSize=8;strokeColor=#ff0000;" parent="gJ3oTAKAnC5Qf_iSqITV-1" source="KleHUVWXG7qDs1t53_0I-0" edge="1">
          <mxGeometry relative="1" as="geometry">
            <mxPoint x="380" y="940" as="targetPoint" />
            <Array as="points">
              <mxPoint x="380" y="900" />
              <mxPoint x="380" y="900" />
            </Array>
          </mxGeometry>
        </mxCell>
        <mxCell id="__pkogI6yC2cSMMWKH94-0" value="" style="edgeStyle=orthogonalEdgeStyle;html=1;verticalAlign=bottom;endArrow=open;endSize=8;strokeColor=#ff0000;" parent="gJ3oTAKAnC5Qf_iSqITV-1" edge="1">
          <mxGeometry relative="1" as="geometry">
            <mxPoint x="381" y="1050" as="targetPoint" />
            <mxPoint x="381" y="980" as="sourcePoint" />
            <Array as="points">
              <mxPoint x="381" y="990" />
              <mxPoint x="381" y="990" />
            </Array>
          </mxGeometry>
        </mxCell>
        <mxCell id="__pkogI6yC2cSMMWKH94-1" value="" style="ellipse;html=1;shape=endState;fillColor=#000000;strokeColor=#ff0000;" parent="gJ3oTAKAnC5Qf_iSqITV-1" vertex="1">
          <mxGeometry x="365" y="1050" width="30" height="30" as="geometry" />
        </mxCell>
        <mxCell id="__pkogI6yC2cSMMWKH94-2" value="" style="rhombus;whiteSpace=wrap;html=1;fillColor=#ffffc0;strokeColor=#ff0000;" parent="gJ3oTAKAnC5Qf_iSqITV-1" vertex="1">
          <mxGeometry x="340" y="940" width="80" height="40" as="geometry" />
        </mxCell>
        <mxCell id="__pkogI6yC2cSMMWKH94-3" value="[Kraj]" style="text;html=1;align=center;verticalAlign=middle;resizable=0;points=[];autosize=1;" parent="gJ3oTAKAnC5Qf_iSqITV-1" vertex="1">
          <mxGeometry x="330" y="990" width="40" height="20" as="geometry" />
        </mxCell>
        <mxCell id="__pkogI6yC2cSMMWKH94-4" value="[Ponovno pokreni]" style="text;html=1;align=center;verticalAlign=middle;resizable=0;points=[];autosize=1;" parent="gJ3oTAKAnC5Qf_iSqITV-1" vertex="1">
          <mxGeometry x="420" y="930" width="110" height="20" as="geometry" />
        </mxCell>
        <mxCell id="__pkogI6yC2cSMMWKH94-6" value="" style="edgeStyle=orthogonalEdgeStyle;html=1;verticalAlign=bottom;endArrow=open;endSize=8;strokeColor=#ff0000;exitX=1;exitY=0.5;exitDx=0;exitDy=0;entryX=1;entryY=0.5;entryDx=0;entryDy=0;" parent="gJ3oTAKAnC5Qf_iSqITV-1" source="__pkogI6yC2cSMMWKH94-2" target="M0TCyav9yBUAygvhkK0y-0" edge="1">
          <mxGeometry relative="1" as="geometry">
            <mxPoint x="810" y="140" as="targetPoint" />
            <mxPoint x="730" y="870" as="sourcePoint" />
            <Array as="points">
              <mxPoint x="810" y="960" />
              <mxPoint x="810" y="150" />
            </Array>
          </mxGeometry>
        </mxCell>
      </root>
    </mxGraphModel>
  </diagram>
  <diagram id="LOHrtawtToNKQq2-C2wj" name="Activity: Unos igraca">
    <mxGraphModel dx="1102" dy="566" grid="1" gridSize="10" guides="1" tooltips="1" connect="1" arrows="1" fold="1" page="1" pageScale="1" pageWidth="827" pageHeight="1169" math="0" shadow="0">
      <root>
        <mxCell id="X77ax9Kx32EDxipPfgC_-0" />
        <mxCell id="X77ax9Kx32EDxipPfgC_-1" parent="X77ax9Kx32EDxipPfgC_-0" />
        <mxCell id="LAPBl2xgN0xRUoY-3fT8-0" value="" style="ellipse;html=1;shape=startState;fillColor=#000000;strokeColor=#ff0000;" parent="X77ax9Kx32EDxipPfgC_-1" vertex="1">
          <mxGeometry x="410" y="20" width="30" height="30" as="geometry" />
        </mxCell>
        <mxCell id="LAPBl2xgN0xRUoY-3fT8-1" value="" style="edgeStyle=orthogonalEdgeStyle;html=1;verticalAlign=bottom;endArrow=open;endSize=8;strokeColor=#006EAF;entryX=0.5;entryY=0;entryDx=0;entryDy=0;fillColor=#1ba1e2;" parent="X77ax9Kx32EDxipPfgC_-1" source="LAPBl2xgN0xRUoY-3fT8-0" target="LAPBl2xgN0xRUoY-3fT8-2" edge="1">
          <mxGeometry relative="1" as="geometry">
            <mxPoint x="400" y="160" as="targetPoint" />
          </mxGeometry>
        </mxCell>
        <mxCell id="LAPBl2xgN0xRUoY-3fT8-2" value="Sustav prikaže unos imena" style="rounded=1;whiteSpace=wrap;html=1;arcSize=40;fontColor=#ffffff;fillColor=#1ba1e2;strokeColor=#006EAF;" parent="X77ax9Kx32EDxipPfgC_-1" vertex="1">
          <mxGeometry x="365" y="80" width="120" height="40" as="geometry" />
        </mxCell>
        <mxCell id="LAPBl2xgN0xRUoY-3fT8-3" value="" style="edgeStyle=orthogonalEdgeStyle;html=1;verticalAlign=bottom;endArrow=open;endSize=8;strokeColor=#006EAF;entryX=0.5;entryY=0;entryDx=0;entryDy=0;fillColor=#1ba1e2;" parent="X77ax9Kx32EDxipPfgC_-1" source="LAPBl2xgN0xRUoY-3fT8-2" target="LAPBl2xgN0xRUoY-3fT8-6" edge="1">
          <mxGeometry relative="1" as="geometry">
            <mxPoint x="400" y="280" as="targetPoint" />
          </mxGeometry>
        </mxCell>
        <mxCell id="LAPBl2xgN0xRUoY-3fT8-4" value="Sustav provjeri valjanost imena" style="rounded=1;whiteSpace=wrap;html=1;arcSize=40;fontColor=#ffffff;fillColor=#1ba1e2;strokeColor=#006EAF;" parent="X77ax9Kx32EDxipPfgC_-1" vertex="1">
          <mxGeometry x="365" y="240" width="120" height="40" as="geometry" />
        </mxCell>
        <mxCell id="LAPBl2xgN0xRUoY-3fT8-5" value="" style="edgeStyle=orthogonalEdgeStyle;html=1;verticalAlign=bottom;endArrow=open;endSize=8;strokeColor=#006EAF;entryX=0.5;entryY=0;entryDx=0;entryDy=0;fillColor=#1ba1e2;" parent="X77ax9Kx32EDxipPfgC_-1" source="LAPBl2xgN0xRUoY-3fT8-4" target="LAPBl2xgN0xRUoY-3fT8-8" edge="1">
          <mxGeometry relative="1" as="geometry">
            <mxPoint x="400" y="490" as="targetPoint" />
          </mxGeometry>
        </mxCell>
        <mxCell id="LAPBl2xgN0xRUoY-3fT8-6" value="Igrač unese ime" style="rounded=1;whiteSpace=wrap;html=1;arcSize=40;fontColor=#ffffff;fillColor=#1ba1e2;strokeColor=#006EAF;" parent="X77ax9Kx32EDxipPfgC_-1" vertex="1">
          <mxGeometry x="365" y="160" width="120" height="40" as="geometry" />
        </mxCell>
        <mxCell id="LAPBl2xgN0xRUoY-3fT8-7" value="" style="edgeStyle=orthogonalEdgeStyle;html=1;verticalAlign=bottom;endArrow=open;endSize=8;strokeColor=#006EAF;fillColor=#1ba1e2;" parent="X77ax9Kx32EDxipPfgC_-1" source="LAPBl2xgN0xRUoY-3fT8-6" target="LAPBl2xgN0xRUoY-3fT8-4" edge="1">
          <mxGeometry relative="1" as="geometry">
            <mxPoint x="400" y="400" as="targetPoint" />
          </mxGeometry>
        </mxCell>
        <mxCell id="LAPBl2xgN0xRUoY-3fT8-8" value="Valjano ime" style="rhombus;whiteSpace=wrap;html=1;fillColor=#1ba1e2;strokeColor=#006EAF;fontColor=#ffffff;" parent="X77ax9Kx32EDxipPfgC_-1" vertex="1">
          <mxGeometry x="370" y="320" width="110" height="60" as="geometry" />
        </mxCell>
        <mxCell id="LAPBl2xgN0xRUoY-3fT8-9" value="" style="edgeStyle=orthogonalEdgeStyle;html=1;align=left;verticalAlign=bottom;endArrow=open;endSize=8;strokeColor=#ff0000;entryX=1;entryY=0.5;entryDx=0;entryDy=0;" parent="X77ax9Kx32EDxipPfgC_-1" source="LAPBl2xgN0xRUoY-3fT8-8" target="LAPBl2xgN0xRUoY-3fT8-2" edge="1">
          <mxGeometry x="-0.9529" y="10" relative="1" as="geometry">
            <mxPoint x="625" y="200" as="targetPoint" />
            <Array as="points">
              <mxPoint x="570" y="350" />
              <mxPoint x="570" y="100" />
            </Array>
            <mxPoint as="offset" />
          </mxGeometry>
        </mxCell>
        <mxCell id="LAPBl2xgN0xRUoY-3fT8-10" value="" style="edgeStyle=orthogonalEdgeStyle;html=1;align=left;verticalAlign=top;endArrow=open;endSize=8;strokeColor=#ff0000;entryX=0.5;entryY=0;entryDx=0;entryDy=0;" parent="X77ax9Kx32EDxipPfgC_-1" source="LAPBl2xgN0xRUoY-3fT8-8" target="LAPBl2xgN0xRUoY-3fT8-11" edge="1">
          <mxGeometry x="-1" relative="1" as="geometry">
            <mxPoint x="395" y="600" as="targetPoint" />
          </mxGeometry>
        </mxCell>
        <mxCell id="LAPBl2xgN0xRUoY-3fT8-11" value="Sustav postavi igrača" style="rounded=1;whiteSpace=wrap;html=1;arcSize=40;fontColor=#ffffff;fillColor=#d80073;strokeColor=#A50040;" parent="X77ax9Kx32EDxipPfgC_-1" vertex="1">
          <mxGeometry x="365" y="440" width="120" height="40" as="geometry" />
        </mxCell>
        <mxCell id="LAPBl2xgN0xRUoY-3fT8-12" value="" style="edgeStyle=orthogonalEdgeStyle;html=1;verticalAlign=bottom;endArrow=open;endSize=8;strokeColor=#ff0000;entryX=0.5;entryY=0;entryDx=0;entryDy=0;exitX=0.5;exitY=1;exitDx=0;exitDy=0;" parent="X77ax9Kx32EDxipPfgC_-1" source="LAPBl2xgN0xRUoY-3fT8-11" target="LAPBl2xgN0xRUoY-3fT8-13" edge="1">
          <mxGeometry relative="1" as="geometry">
            <mxPoint x="405" y="720" as="targetPoint" />
            <Array as="points">
              <mxPoint x="425" y="510" />
              <mxPoint x="425" y="510" />
            </Array>
          </mxGeometry>
        </mxCell>
        <mxCell id="LAPBl2xgN0xRUoY-3fT8-13" value="" style="ellipse;html=1;shape=endState;fillColor=#000000;strokeColor=#ff0000;" parent="X77ax9Kx32EDxipPfgC_-1" vertex="1">
          <mxGeometry x="410" y="550" width="30" height="30" as="geometry" />
        </mxCell>
        <mxCell id="LAPBl2xgN0xRUoY-3fT8-14" value="[nevaljano ime]" style="text;html=1;align=center;verticalAlign=middle;resizable=0;points=[];autosize=1;" parent="X77ax9Kx32EDxipPfgC_-1" vertex="1">
          <mxGeometry x="460" y="320" width="100" height="20" as="geometry" />
        </mxCell>
        <mxCell id="LAPBl2xgN0xRUoY-3fT8-15" value="[valjano ime]" style="text;html=1;align=center;verticalAlign=middle;resizable=0;points=[];autosize=1;" parent="X77ax9Kx32EDxipPfgC_-1" vertex="1">
          <mxGeometry x="430" y="390" width="80" height="20" as="geometry" />
        </mxCell>
      </root>
    </mxGraphModel>
  </diagram>
  <diagram id="AFCPo0VLMZWMtS2AZWKf" name="Activity: Postavljanje pitanja">
    <mxGraphModel dx="1102" dy="566" grid="1" gridSize="10" guides="1" tooltips="1" connect="1" arrows="1" fold="1" page="1" pageScale="1" pageWidth="827" pageHeight="1169" math="0" shadow="0">
      <root>
        <mxCell id="KzwGl7uWtQECDXbUEPMc-0" />
        <mxCell id="KzwGl7uWtQECDXbUEPMc-1" parent="KzwGl7uWtQECDXbUEPMc-0" />
        <mxCell id="SCyB2V1swjxUoJi98PG6-0" value="" style="ellipse;html=1;shape=startState;fillColor=#000000;strokeColor=#ff0000;" parent="KzwGl7uWtQECDXbUEPMc-1" vertex="1">
          <mxGeometry x="426" y="40" width="30" height="30" as="geometry" />
        </mxCell>
        <mxCell id="SCyB2V1swjxUoJi98PG6-1" value="" style="edgeStyle=orthogonalEdgeStyle;html=1;verticalAlign=bottom;endArrow=open;endSize=8;strokeColor=#ff0000;entryX=0.5;entryY=0;entryDx=0;entryDy=0;" parent="KzwGl7uWtQECDXbUEPMc-1" source="SCyB2V1swjxUoJi98PG6-0" target="SCyB2V1swjxUoJi98PG6-2" edge="1">
          <mxGeometry relative="1" as="geometry">
            <mxPoint x="441" y="110" as="targetPoint" />
          </mxGeometry>
        </mxCell>
        <mxCell id="SCyB2V1swjxUoJi98PG6-2" value="Sustav prikaže nasumično odabrano pitanje" style="rounded=1;whiteSpace=wrap;html=1;arcSize=40;fontColor=#ffffff;fillColor=#1ba1e2;strokeColor=#006EAF;" parent="KzwGl7uWtQECDXbUEPMc-1" vertex="1">
          <mxGeometry x="346" y="110" width="190" height="70" as="geometry" />
        </mxCell>
        <mxCell id="SCyB2V1swjxUoJi98PG6-4" value="Sustav prikaže ponuđene odgovore (A , B, C, D)" style="rounded=1;whiteSpace=wrap;html=1;arcSize=40;fontColor=#ffffff;fillColor=#1ba1e2;strokeColor=#006EAF;" parent="KzwGl7uWtQECDXbUEPMc-1" vertex="1">
          <mxGeometry x="340" y="320" width="202" height="40" as="geometry" />
        </mxCell>
        <mxCell id="SCyB2V1swjxUoJi98PG6-7" value="" style="edgeStyle=orthogonalEdgeStyle;html=1;verticalAlign=bottom;endArrow=open;endSize=8;strokeColor=#ff0000;entryX=0.5;entryY=0;entryDx=0;entryDy=0;" parent="KzwGl7uWtQECDXbUEPMc-1" target="SCyB2V1swjxUoJi98PG6-8" edge="1">
          <mxGeometry relative="1" as="geometry">
            <mxPoint x="465.5" y="580" as="targetPoint" />
            <mxPoint x="440.5" y="360" as="sourcePoint" />
          </mxGeometry>
        </mxCell>
        <mxCell id="SCyB2V1swjxUoJi98PG6-8" value="" style="ellipse;html=1;shape=endState;fillColor=#000000;strokeColor=#ff0000;" parent="KzwGl7uWtQECDXbUEPMc-1" vertex="1">
          <mxGeometry x="426" y="430" width="30" height="30" as="geometry" />
        </mxCell>
        <mxCell id="-2XerMJeh5AuOmS01XK--0" value="" style="edgeStyle=orthogonalEdgeStyle;html=1;verticalAlign=bottom;endArrow=open;endSize=8;strokeColor=#ff0000;exitX=0.5;exitY=1;exitDx=0;exitDy=0;" parent="KzwGl7uWtQECDXbUEPMc-1" source="SCyB2V1swjxUoJi98PG6-2" edge="1">
          <mxGeometry relative="1" as="geometry">
            <mxPoint x="441" y="220" as="targetPoint" />
            <mxPoint x="426" y="240" as="sourcePoint" />
          </mxGeometry>
        </mxCell>
        <mxCell id="-2XerMJeh5AuOmS01XK--1" value="" style="rhombus;whiteSpace=wrap;html=1;fillColor=#1ba1e2;strokeColor=#006EAF;fontColor=#ffffff;" parent="KzwGl7uWtQECDXbUEPMc-1" vertex="1">
          <mxGeometry x="401" y="220" width="80" height="40" as="geometry" />
        </mxCell>
        <mxCell id="-2XerMJeh5AuOmS01XK--2" value="" style="edgeStyle=orthogonalEdgeStyle;html=1;align=left;verticalAlign=bottom;endArrow=open;endSize=8;strokeColor=#ff0000;exitX=1;exitY=0.5;exitDx=0;exitDy=0;" parent="KzwGl7uWtQECDXbUEPMc-1" source="-2XerMJeh5AuOmS01XK--1" edge="1">
          <mxGeometry x="-1" relative="1" as="geometry">
            <mxPoint x="679" y="319.5" as="targetPoint" />
            <mxPoint x="520" y="319" as="sourcePoint" />
            <Array as="points">
              <mxPoint x="679" y="240" />
            </Array>
          </mxGeometry>
        </mxCell>
        <mxCell id="-2XerMJeh5AuOmS01XK--3" value="" style="edgeStyle=orthogonalEdgeStyle;html=1;align=left;verticalAlign=top;endArrow=open;endSize=8;strokeColor=#ff0000;" parent="KzwGl7uWtQECDXbUEPMc-1" source="-2XerMJeh5AuOmS01XK--1" edge="1">
          <mxGeometry x="-1" relative="1" as="geometry">
            <mxPoint x="441" y="320" as="targetPoint" />
          </mxGeometry>
        </mxCell>
        <mxCell id="-2XerMJeh5AuOmS01XK--4" value="Odabran jocker Pola-pola" style="text;html=1;align=center;verticalAlign=middle;resizable=0;points=[];autosize=1;" parent="KzwGl7uWtQECDXbUEPMc-1" vertex="1">
          <mxGeometry x="480" y="210" width="150" height="20" as="geometry" />
        </mxCell>
        <mxCell id="-2XerMJeh5AuOmS01XK--5" value="Nije odabran jocker Pola-pola" style="text;html=1;align=center;verticalAlign=middle;resizable=0;points=[];autosize=1;" parent="KzwGl7uWtQECDXbUEPMc-1" vertex="1">
          <mxGeometry x="266" y="270" width="170" height="20" as="geometry" />
        </mxCell>
        <mxCell id="-2XerMJeh5AuOmS01XK--6" value="Sustav prikaže moguće odgovore temeljem odgovora jockera Pola-pola" style="rounded=1;whiteSpace=wrap;html=1;arcSize=40;fontColor=#ffffff;fillColor=#1ba1e2;strokeColor=#006EAF;" parent="KzwGl7uWtQECDXbUEPMc-1" vertex="1">
          <mxGeometry x="560" y="320" width="222" height="40" as="geometry" />
        </mxCell>
        <mxCell id="-2XerMJeh5AuOmS01XK--7" value="" style="edgeStyle=orthogonalEdgeStyle;html=1;verticalAlign=bottom;endArrow=open;endSize=8;strokeColor=#ff0000;entryX=0.5;entryY=0;entryDx=0;entryDy=0;exitX=0.532;exitY=1.05;exitDx=0;exitDy=0;exitPerimeter=0;" parent="KzwGl7uWtQECDXbUEPMc-1" source="-2XerMJeh5AuOmS01XK--6" edge="1">
          <mxGeometry relative="1" as="geometry">
            <mxPoint x="456.5" y="440" as="targetPoint" />
            <mxPoint x="456" y="380" as="sourcePoint" />
            <Array as="points">
              <mxPoint x="680" y="362" />
              <mxPoint x="680" y="440" />
            </Array>
          </mxGeometry>
        </mxCell>
      </root>
    </mxGraphModel>
  </diagram>
  <diagram id="Wh95QXBc8cWBaSjNVDVt" name="Activity: Odlučivanje o nastavku igre">
    <mxGraphModel dx="1102" dy="566" grid="1" gridSize="10" guides="1" tooltips="1" connect="1" arrows="1" fold="1" page="1" pageScale="1" pageWidth="827" pageHeight="1169" math="0" shadow="0">
      <root>
        <mxCell id="j3hs-okgm4EMLesSizXF-0" />
        <mxCell id="j3hs-okgm4EMLesSizXF-1" parent="j3hs-okgm4EMLesSizXF-0" />
        <mxCell id="edbmKr-K46fSjWpPQv_a-0" value="" style="ellipse;html=1;shape=startState;fillColor=#000000;strokeColor=#ff0000;" parent="j3hs-okgm4EMLesSizXF-1" vertex="1">
          <mxGeometry x="350" y="40" width="30" height="30" as="geometry" />
        </mxCell>
        <mxCell id="edbmKr-K46fSjWpPQv_a-1" value="" style="edgeStyle=orthogonalEdgeStyle;html=1;verticalAlign=bottom;endArrow=open;endSize=8;strokeColor=#ff0000;" parent="j3hs-okgm4EMLesSizXF-1" source="edbmKr-K46fSjWpPQv_a-0" edge="1">
          <mxGeometry relative="1" as="geometry">
            <mxPoint x="365" y="130" as="targetPoint" />
          </mxGeometry>
        </mxCell>
        <mxCell id="edbmKr-K46fSjWpPQv_a-2" value="Sustav igraču prikaže mogućnost: &lt;br&gt;1. Odustajanja&lt;br&gt;2. Odabira jockera&lt;br&gt;3.Odgovaranja na pitanje" style="rounded=1;whiteSpace=wrap;html=1;arcSize=40;fontColor=#ffffff;fillColor=#1ba1e2;strokeColor=#006EAF;" parent="j3hs-okgm4EMLesSizXF-1" vertex="1">
          <mxGeometry x="220" y="130" width="290" height="100" as="geometry" />
        </mxCell>
        <mxCell id="edbmKr-K46fSjWpPQv_a-3" value="" style="edgeStyle=orthogonalEdgeStyle;html=1;verticalAlign=bottom;endArrow=open;endSize=8;strokeColor=#ff0000;" parent="j3hs-okgm4EMLesSizXF-1" source="edbmKr-K46fSjWpPQv_a-2" edge="1">
          <mxGeometry relative="1" as="geometry">
            <mxPoint x="365" y="280" as="targetPoint" />
          </mxGeometry>
        </mxCell>
        <mxCell id="nESSf6lIpANrKyuKQ2J1-0" value="Igrač odabire željenu mogućnost" style="rounded=1;whiteSpace=wrap;html=1;arcSize=50;fontColor=#ffffff;fillColor=#1ba1e2;strokeColor=#006EAF;" parent="j3hs-okgm4EMLesSizXF-1" vertex="1">
          <mxGeometry x="246.25" y="280" width="237.5" height="40" as="geometry" />
        </mxCell>
        <mxCell id="nESSf6lIpANrKyuKQ2J1-1" value="" style="edgeStyle=orthogonalEdgeStyle;html=1;verticalAlign=bottom;endArrow=open;endSize=8;strokeColor=#ff0000;" parent="j3hs-okgm4EMLesSizXF-1" source="nESSf6lIpANrKyuKQ2J1-0" edge="1">
          <mxGeometry relative="1" as="geometry">
            <mxPoint x="365" y="370" as="targetPoint" />
          </mxGeometry>
        </mxCell>
        <mxCell id="nESSf6lIpANrKyuKQ2J1-2" value="" style="ellipse;html=1;shape=endState;fillColor=#000000;strokeColor=#ff0000;" parent="j3hs-okgm4EMLesSizXF-1" vertex="1">
          <mxGeometry x="349" y="560" width="30" height="30" as="geometry" />
        </mxCell>
        <mxCell id="mq78cwTUoooIHIPxTruu-0" value="Sustav provjerava ispravnost igračevog unosa" style="rounded=1;whiteSpace=wrap;html=1;arcSize=40;fontColor=#ffffff;fillColor=#d80073;strokeColor=#A50040;" parent="j3hs-okgm4EMLesSizXF-1" vertex="1">
          <mxGeometry x="272.5" y="370" width="185" height="40" as="geometry" />
        </mxCell>
        <mxCell id="mq78cwTUoooIHIPxTruu-1" value="" style="edgeStyle=orthogonalEdgeStyle;html=1;verticalAlign=bottom;endArrow=open;endSize=8;strokeColor=#ff0000;" parent="j3hs-okgm4EMLesSizXF-1" source="mq78cwTUoooIHIPxTruu-0" edge="1">
          <mxGeometry relative="1" as="geometry">
            <mxPoint x="365" y="450" as="targetPoint" />
          </mxGeometry>
        </mxCell>
        <mxCell id="mq78cwTUoooIHIPxTruu-2" value="" style="rhombus;whiteSpace=wrap;html=1;fillColor=#d80073;strokeColor=#A50040;fontColor=#ffffff;" parent="j3hs-okgm4EMLesSizXF-1" vertex="1">
          <mxGeometry x="324" y="450" width="80" height="40" as="geometry" />
        </mxCell>
        <mxCell id="mq78cwTUoooIHIPxTruu-3" value="" style="edgeStyle=orthogonalEdgeStyle;html=1;align=left;verticalAlign=bottom;endArrow=open;endSize=8;strokeColor=#ff0000;entryX=1;entryY=0.5;entryDx=0;entryDy=0;" parent="j3hs-okgm4EMLesSizXF-1" source="mq78cwTUoooIHIPxTruu-2" target="edbmKr-K46fSjWpPQv_a-2" edge="1">
          <mxGeometry x="-1" relative="1" as="geometry">
            <mxPoint x="600" y="170" as="targetPoint" />
            <Array as="points">
              <mxPoint x="620" y="470" />
              <mxPoint x="620" y="180" />
            </Array>
          </mxGeometry>
        </mxCell>
        <mxCell id="mq78cwTUoooIHIPxTruu-4" value="" style="edgeStyle=orthogonalEdgeStyle;html=1;align=left;verticalAlign=top;endArrow=open;endSize=8;strokeColor=#ff0000;entryX=0.5;entryY=0;entryDx=0;entryDy=0;" parent="j3hs-okgm4EMLesSizXF-1" source="mq78cwTUoooIHIPxTruu-2" target="nESSf6lIpANrKyuKQ2J1-2" edge="1">
          <mxGeometry x="-0.6667" y="16" relative="1" as="geometry">
            <mxPoint x="364" y="550" as="targetPoint" />
            <mxPoint as="offset" />
          </mxGeometry>
        </mxCell>
        <mxCell id="mq78cwTUoooIHIPxTruu-5" value="[Unos ispravan]" style="text;html=1;align=center;verticalAlign=middle;resizable=0;points=[];autosize=1;" parent="j3hs-okgm4EMLesSizXF-1" vertex="1">
          <mxGeometry x="364" y="500" width="100" height="20" as="geometry" />
        </mxCell>
        <mxCell id="mq78cwTUoooIHIPxTruu-6" value="[Unos neispravan]" style="text;html=1;align=center;verticalAlign=middle;resizable=0;points=[];autosize=1;" parent="j3hs-okgm4EMLesSizXF-1" vertex="1">
          <mxGeometry x="400" y="440" width="110" height="20" as="geometry" />
        </mxCell>
      </root>
    </mxGraphModel>
  </diagram>
  <diagram id="ZerOcZagqD3HMGZ3vX-z" name="Activity: Odgovaranje na pitanje">
    <mxGraphModel dx="1102" dy="566" grid="1" gridSize="10" guides="1" tooltips="1" connect="1" arrows="1" fold="1" page="1" pageScale="1" pageWidth="827" pageHeight="1169" math="0" shadow="0">
      <root>
        <mxCell id="O2cotewn6tp8ncom753v-0" />
        <mxCell id="O2cotewn6tp8ncom753v-1" parent="O2cotewn6tp8ncom753v-0" />
        <mxCell id="hz34UGnrlQwFIg_bXI3C-0" value="" style="ellipse;html=1;shape=startState;fillColor=#000000;strokeColor=#ff0000;" parent="O2cotewn6tp8ncom753v-1" vertex="1">
          <mxGeometry x="370" y="30" width="30" height="30" as="geometry" />
        </mxCell>
        <mxCell id="hz34UGnrlQwFIg_bXI3C-1" value="" style="edgeStyle=orthogonalEdgeStyle;html=1;verticalAlign=bottom;endArrow=open;endSize=8;strokeColor=#ff0000;" parent="O2cotewn6tp8ncom753v-1" source="hz34UGnrlQwFIg_bXI3C-0" edge="1">
          <mxGeometry relative="1" as="geometry">
            <mxPoint x="385" y="120" as="targetPoint" />
          </mxGeometry>
        </mxCell>
        <mxCell id="hz34UGnrlQwFIg_bXI3C-3" value="Sustav prikaže igraču mogućnost unosa odgovora" style="rounded=1;whiteSpace=wrap;html=1;arcSize=40;fontColor=#ffffff;fillColor=#1ba1e2;strokeColor=#006EAF;" parent="O2cotewn6tp8ncom753v-1" vertex="1">
          <mxGeometry x="290" y="120" width="195" height="60" as="geometry" />
        </mxCell>
        <mxCell id="hz34UGnrlQwFIg_bXI3C-4" value="" style="edgeStyle=orthogonalEdgeStyle;html=1;verticalAlign=bottom;endArrow=open;endSize=8;strokeColor=#ff0000;" parent="O2cotewn6tp8ncom753v-1" source="hz34UGnrlQwFIg_bXI3C-3" edge="1">
          <mxGeometry relative="1" as="geometry">
            <mxPoint x="388" y="230" as="targetPoint" />
          </mxGeometry>
        </mxCell>
        <mxCell id="hz34UGnrlQwFIg_bXI3C-5" value="Igrač unosi konačan odgovor" style="rounded=1;whiteSpace=wrap;html=1;arcSize=40;fontColor=#ffffff;fillColor=#1ba1e2;strokeColor=#006EAF;" parent="O2cotewn6tp8ncom753v-1" vertex="1">
          <mxGeometry x="290" y="230" width="192.5" height="40" as="geometry" />
        </mxCell>
        <mxCell id="ygUt6ugum5wjUvOb98z3-0" value="Sustav provjerava ispravnost unosa" style="rounded=1;whiteSpace=wrap;html=1;arcSize=40;fontColor=#ffffff;fillColor=#d80073;strokeColor=#A50040;" parent="O2cotewn6tp8ncom753v-1" vertex="1">
          <mxGeometry x="287.5" y="320" width="195" height="40" as="geometry" />
        </mxCell>
        <mxCell id="ygUt6ugum5wjUvOb98z3-1" value="" style="edgeStyle=orthogonalEdgeStyle;html=1;verticalAlign=bottom;endArrow=open;endSize=8;strokeColor=#ff0000;" parent="O2cotewn6tp8ncom753v-1" source="ygUt6ugum5wjUvOb98z3-0" edge="1">
          <mxGeometry relative="1" as="geometry">
            <mxPoint x="385" y="410" as="targetPoint" />
          </mxGeometry>
        </mxCell>
        <mxCell id="ygUt6ugum5wjUvOb98z3-4" value="" style="edgeStyle=orthogonalEdgeStyle;html=1;verticalAlign=bottom;endArrow=open;endSize=8;strokeColor=#ff0000;entryX=0.5;entryY=0;entryDx=0;entryDy=0;exitX=0.5;exitY=1;exitDx=0;exitDy=0;" parent="O2cotewn6tp8ncom753v-1" source="hz34UGnrlQwFIg_bXI3C-5" target="ygUt6ugum5wjUvOb98z3-0" edge="1">
          <mxGeometry relative="1" as="geometry">
            <mxPoint x="395" y="420" as="targetPoint" />
            <mxPoint x="385" y="280" as="sourcePoint" />
            <Array as="points">
              <mxPoint x="385" y="270" />
            </Array>
          </mxGeometry>
        </mxCell>
        <mxCell id="U2IBosK55BeepCZ5TBX5-0" value="" style="ellipse;html=1;shape=endState;fillColor=#000000;strokeColor=#ff0000;" parent="O2cotewn6tp8ncom753v-1" vertex="1">
          <mxGeometry x="371.25" y="555" width="30" height="30" as="geometry" />
        </mxCell>
        <mxCell id="U2IBosK55BeepCZ5TBX5-2" value="" style="rhombus;whiteSpace=wrap;html=1;fillColor=#d80073;strokeColor=#A50040;fontColor=#ffffff;" parent="O2cotewn6tp8ncom753v-1" vertex="1">
          <mxGeometry x="346.25" y="410" width="80" height="40" as="geometry" />
        </mxCell>
        <mxCell id="U2IBosK55BeepCZ5TBX5-3" value="" style="edgeStyle=orthogonalEdgeStyle;html=1;align=left;verticalAlign=top;endArrow=open;endSize=8;strokeColor=#ff0000;entryX=0.5;entryY=0;entryDx=0;entryDy=0;" parent="O2cotewn6tp8ncom753v-1" source="U2IBosK55BeepCZ5TBX5-2" target="U2IBosK55BeepCZ5TBX5-0" edge="1">
          <mxGeometry x="-0.6667" y="16" relative="1" as="geometry">
            <mxPoint x="364" y="550" as="targetPoint" />
            <mxPoint as="offset" />
          </mxGeometry>
        </mxCell>
        <mxCell id="U2IBosK55BeepCZ5TBX5-4" value="[Unos ispravan]" style="text;html=1;align=center;verticalAlign=middle;resizable=0;points=[];autosize=1;" parent="O2cotewn6tp8ncom753v-1" vertex="1">
          <mxGeometry x="385" y="470" width="100" height="20" as="geometry" />
        </mxCell>
        <mxCell id="U2IBosK55BeepCZ5TBX5-5" value="[Unos neispravan]" style="text;html=1;align=center;verticalAlign=middle;resizable=0;points=[];autosize=1;" parent="O2cotewn6tp8ncom753v-1" vertex="1">
          <mxGeometry x="470" y="400" width="110" height="20" as="geometry" />
        </mxCell>
        <mxCell id="U2IBosK55BeepCZ5TBX5-10" value="" style="edgeStyle=orthogonalEdgeStyle;html=1;verticalAlign=bottom;endArrow=open;endSize=8;strokeColor=#ff0000;exitX=1;exitY=0.5;exitDx=0;exitDy=0;entryX=1;entryY=0.5;entryDx=0;entryDy=0;" parent="O2cotewn6tp8ncom753v-1" source="U2IBosK55BeepCZ5TBX5-2" target="hz34UGnrlQwFIg_bXI3C-3" edge="1">
          <mxGeometry relative="1" as="geometry">
            <mxPoint x="690" y="410" as="targetPoint" />
            <mxPoint x="690" y="350" as="sourcePoint" />
            <Array as="points">
              <mxPoint x="630" y="430" />
              <mxPoint x="630" y="150" />
            </Array>
          </mxGeometry>
        </mxCell>
      </root>
    </mxGraphModel>
  </diagram>
  <diagram id="65A_a2m3QfcrNckKrDhN" name="Activity: Korištenje jockera">
    <mxGraphModel dx="1102" dy="566" grid="1" gridSize="10" guides="1" tooltips="1" connect="1" arrows="1" fold="1" page="1" pageScale="1" pageWidth="827" pageHeight="1169" math="0" shadow="0">
      <root>
        <mxCell id="eQLCnvTHSbkeNSu74QUB-0" />
        <mxCell id="eQLCnvTHSbkeNSu74QUB-1" parent="eQLCnvTHSbkeNSu74QUB-0" />
        <mxCell id="S_8a-Sid7ZqxIjSE7AQb-0" value="" style="ellipse;html=1;shape=startState;fillColor=#000000;strokeColor=#ff0000;" parent="eQLCnvTHSbkeNSu74QUB-1" vertex="1">
          <mxGeometry x="350" y="20" width="30" height="30" as="geometry" />
        </mxCell>
        <mxCell id="S_8a-Sid7ZqxIjSE7AQb-3" value="Sustav korisniku prikaže dostupne jockere" style="rounded=1;whiteSpace=wrap;html=1;arcSize=40;fontColor=#ffffff;fillColor=#1ba1e2;strokeColor=#006EAF;" parent="eQLCnvTHSbkeNSu74QUB-1" vertex="1">
          <mxGeometry x="260" y="140" width="210" height="40" as="geometry" />
        </mxCell>
        <mxCell id="S_8a-Sid7ZqxIjSE7AQb-7" value="" style="edgeStyle=orthogonalEdgeStyle;html=1;verticalAlign=bottom;endArrow=open;endSize=8;strokeColor=#ff0000;exitX=0.5;exitY=1;exitDx=0;exitDy=0;entryX=0.5;entryY=0;entryDx=0;entryDy=0;" parent="eQLCnvTHSbkeNSu74QUB-1" source="S_8a-Sid7ZqxIjSE7AQb-0" target="S_8a-Sid7ZqxIjSE7AQb-3" edge="1">
          <mxGeometry relative="1" as="geometry">
            <mxPoint x="590" y="190" as="targetPoint" />
            <mxPoint x="590" y="130" as="sourcePoint" />
          </mxGeometry>
        </mxCell>
        <mxCell id="S_8a-Sid7ZqxIjSE7AQb-9" value="" style="edgeStyle=orthogonalEdgeStyle;html=1;verticalAlign=bottom;endArrow=open;endSize=8;strokeColor=#ff0000;exitX=0.5;exitY=1;exitDx=0;exitDy=0;" parent="eQLCnvTHSbkeNSu74QUB-1" source="S_8a-Sid7ZqxIjSE7AQb-3" edge="1">
          <mxGeometry relative="1" as="geometry">
            <mxPoint x="365" y="220" as="targetPoint" />
            <mxPoint x="410" y="270" as="sourcePoint" />
          </mxGeometry>
        </mxCell>
        <mxCell id="S_8a-Sid7ZqxIjSE7AQb-10" value="Korisnik unosi željenog jockera" style="rounded=1;whiteSpace=wrap;html=1;arcSize=40;fontColor=#ffffff;fillColor=#1ba1e2;strokeColor=#006EAF;" parent="eQLCnvTHSbkeNSu74QUB-1" vertex="1">
          <mxGeometry x="267" y="220" width="196" height="40" as="geometry" />
        </mxCell>
        <mxCell id="S_8a-Sid7ZqxIjSE7AQb-11" value="" style="edgeStyle=orthogonalEdgeStyle;html=1;verticalAlign=bottom;endArrow=open;endSize=8;strokeColor=#ff0000;" parent="eQLCnvTHSbkeNSu74QUB-1" source="S_8a-Sid7ZqxIjSE7AQb-10" edge="1">
          <mxGeometry relative="1" as="geometry">
            <mxPoint x="365" y="300" as="targetPoint" />
          </mxGeometry>
        </mxCell>
        <mxCell id="S_8a-Sid7ZqxIjSE7AQb-12" value="Sustav provjerava ispravnost unosa" style="rounded=1;whiteSpace=wrap;html=1;arcSize=40;fontColor=#ffffff;fillColor=#d80073;strokeColor=#A50040;" parent="eQLCnvTHSbkeNSu74QUB-1" vertex="1">
          <mxGeometry x="262.5" y="300" width="205" height="40" as="geometry" />
        </mxCell>
        <mxCell id="S_8a-Sid7ZqxIjSE7AQb-13" value="" style="edgeStyle=orthogonalEdgeStyle;html=1;verticalAlign=bottom;endArrow=open;endSize=8;strokeColor=#ff0000;" parent="eQLCnvTHSbkeNSu74QUB-1" source="S_8a-Sid7ZqxIjSE7AQb-12" edge="1">
          <mxGeometry relative="1" as="geometry">
            <mxPoint x="365" y="370" as="targetPoint" />
          </mxGeometry>
        </mxCell>
        <mxCell id="SL5B5nidsIbu0M-5Gn1C-1" value="Sustav provjerava je li željeni jocker dostupan" style="rounded=1;whiteSpace=wrap;html=1;arcSize=40;fontColor=#ffffff;fillColor=#d80073;strokeColor=#A50040;" parent="eQLCnvTHSbkeNSu74QUB-1" vertex="1">
          <mxGeometry x="219" y="480" width="295" height="40" as="geometry" />
        </mxCell>
        <mxCell id="SL5B5nidsIbu0M-5Gn1C-2" value="" style="edgeStyle=orthogonalEdgeStyle;html=1;verticalAlign=bottom;endArrow=open;endSize=8;strokeColor=#ff0000;" parent="eQLCnvTHSbkeNSu74QUB-1" source="SL5B5nidsIbu0M-5Gn1C-1" edge="1">
          <mxGeometry relative="1" as="geometry">
            <mxPoint x="365" y="560" as="targetPoint" />
            <Array as="points">
              <mxPoint x="365" y="530" />
              <mxPoint x="365" y="530" />
            </Array>
          </mxGeometry>
        </mxCell>
        <mxCell id="hTijNF06LR98DvZOKXGB-1" value="" style="rhombus;whiteSpace=wrap;html=1;fillColor=#d80073;strokeColor=#A50040;fontColor=#ffffff;" parent="eQLCnvTHSbkeNSu74QUB-1" vertex="1">
          <mxGeometry x="326.5" y="370" width="80" height="40" as="geometry" />
        </mxCell>
        <mxCell id="hTijNF06LR98DvZOKXGB-2" value="" style="edgeStyle=orthogonalEdgeStyle;html=1;align=left;verticalAlign=top;endArrow=open;endSize=8;strokeColor=#ff0000;entryX=0.5;entryY=0;entryDx=0;entryDy=0;" parent="eQLCnvTHSbkeNSu74QUB-1" source="hTijNF06LR98DvZOKXGB-1" edge="1">
          <mxGeometry x="-0.6667" y="16" relative="1" as="geometry">
            <mxPoint x="366.5" y="480" as="targetPoint" />
            <mxPoint as="offset" />
          </mxGeometry>
        </mxCell>
        <mxCell id="hTijNF06LR98DvZOKXGB-3" value="[Unos ispravan]" style="text;html=1;align=center;verticalAlign=middle;resizable=0;points=[];autosize=1;" parent="eQLCnvTHSbkeNSu74QUB-1" vertex="1">
          <mxGeometry x="366.5" y="420" width="100" height="20" as="geometry" />
        </mxCell>
        <mxCell id="hTijNF06LR98DvZOKXGB-4" value="[Unos neispravan]" style="text;html=1;align=center;verticalAlign=middle;resizable=0;points=[];autosize=1;" parent="eQLCnvTHSbkeNSu74QUB-1" vertex="1">
          <mxGeometry x="402.5" y="360" width="110" height="20" as="geometry" />
        </mxCell>
        <mxCell id="hTijNF06LR98DvZOKXGB-6" value="" style="edgeStyle=orthogonalEdgeStyle;html=1;verticalAlign=bottom;endArrow=open;endSize=8;strokeColor=#ff0000;exitX=1;exitY=0.5;exitDx=0;exitDy=0;entryX=1;entryY=0.5;entryDx=0;entryDy=0;" parent="eQLCnvTHSbkeNSu74QUB-1" source="hTijNF06LR98DvZOKXGB-1" target="S_8a-Sid7ZqxIjSE7AQb-3" edge="1">
          <mxGeometry relative="1" as="geometry">
            <mxPoint x="620" y="370" as="targetPoint" />
            <mxPoint x="620" y="310" as="sourcePoint" />
            <Array as="points">
              <mxPoint x="630" y="390" />
              <mxPoint x="630" y="160" />
            </Array>
          </mxGeometry>
        </mxCell>
        <mxCell id="hTijNF06LR98DvZOKXGB-8" value="" style="rhombus;whiteSpace=wrap;html=1;fillColor=#d80073;strokeColor=#A50040;fontColor=#ffffff;" parent="eQLCnvTHSbkeNSu74QUB-1" vertex="1">
          <mxGeometry x="323.5" y="560" width="80" height="40" as="geometry" />
        </mxCell>
        <mxCell id="hTijNF06LR98DvZOKXGB-9" value="" style="edgeStyle=orthogonalEdgeStyle;html=1;align=left;verticalAlign=top;endArrow=open;endSize=8;strokeColor=#ff0000;" parent="eQLCnvTHSbkeNSu74QUB-1" source="hTijNF06LR98DvZOKXGB-8" edge="1">
          <mxGeometry x="-0.6667" y="16" relative="1" as="geometry">
            <mxPoint x="364" y="650" as="targetPoint" />
            <mxPoint as="offset" />
          </mxGeometry>
        </mxCell>
        <mxCell id="hTijNF06LR98DvZOKXGB-11" value="[Jocker nedostupan]" style="text;html=1;align=center;verticalAlign=middle;resizable=0;points=[];autosize=1;" parent="eQLCnvTHSbkeNSu74QUB-1" vertex="1">
          <mxGeometry x="402.5" y="560" width="120" height="20" as="geometry" />
        </mxCell>
        <mxCell id="hTijNF06LR98DvZOKXGB-12" value="" style="edgeStyle=orthogonalEdgeStyle;html=1;verticalAlign=bottom;endArrow=open;endSize=8;strokeColor=#ff0000;entryX=1;entryY=0.25;entryDx=0;entryDy=0;" parent="eQLCnvTHSbkeNSu74QUB-1" target="S_8a-Sid7ZqxIjSE7AQb-3" edge="1">
          <mxGeometry relative="1" as="geometry">
            <mxPoint x="463" y="350" as="targetPoint" />
            <mxPoint x="400" y="580" as="sourcePoint" />
            <Array as="points">
              <mxPoint x="710" y="580" />
              <mxPoint x="710" y="150" />
            </Array>
          </mxGeometry>
        </mxCell>
        <mxCell id="hTijNF06LR98DvZOKXGB-13" value="[Jocker dostupan]" style="text;html=1;align=center;verticalAlign=middle;resizable=0;points=[];autosize=1;" parent="eQLCnvTHSbkeNSu74QUB-1" vertex="1">
          <mxGeometry x="357.5" y="610" width="110" height="20" as="geometry" />
        </mxCell>
        <mxCell id="hTijNF06LR98DvZOKXGB-15" value="" style="rhombus;whiteSpace=wrap;html=1;fillColor=#1ba1e2;strokeColor=#006EAF;fontColor=#ffffff;" parent="eQLCnvTHSbkeNSu74QUB-1" vertex="1">
          <mxGeometry x="326" y="730" width="80" height="40" as="geometry" />
        </mxCell>
        <mxCell id="hTijNF06LR98DvZOKXGB-16" value="" style="edgeStyle=orthogonalEdgeStyle;html=1;align=left;verticalAlign=bottom;endArrow=open;endSize=8;strokeColor=#ff0000;" parent="eQLCnvTHSbkeNSu74QUB-1" edge="1">
          <mxGeometry x="-1" relative="1" as="geometry">
            <mxPoint x="512.5" y="750" as="targetPoint" />
            <mxPoint x="405.5" y="749.5" as="sourcePoint" />
            <Array as="points">
              <mxPoint x="459.5" y="749.5" />
            </Array>
          </mxGeometry>
        </mxCell>
        <mxCell id="hTijNF06LR98DvZOKXGB-17" value="" style="edgeStyle=orthogonalEdgeStyle;html=1;align=left;verticalAlign=top;endArrow=open;endSize=8;strokeColor=#ff0000;" parent="eQLCnvTHSbkeNSu74QUB-1" source="hTijNF06LR98DvZOKXGB-15" edge="1">
          <mxGeometry x="-1" relative="1" as="geometry">
            <mxPoint x="366.5" y="840" as="targetPoint" />
          </mxGeometry>
        </mxCell>
        <mxCell id="hTijNF06LR98DvZOKXGB-18" value="" style="edgeStyle=orthogonalEdgeStyle;html=1;align=left;verticalAlign=bottom;endArrow=open;endSize=8;strokeColor=#ff0000;" parent="eQLCnvTHSbkeNSu74QUB-1" edge="1">
          <mxGeometry x="-1" relative="1" as="geometry">
            <mxPoint x="212.5" y="750" as="targetPoint" />
            <mxPoint x="319" y="749.5" as="sourcePoint" />
            <Array as="points">
              <mxPoint x="329" y="749.5" />
              <mxPoint x="329" y="749.5" />
            </Array>
          </mxGeometry>
        </mxCell>
        <mxCell id="hTijNF06LR98DvZOKXGB-19" value="[Pitaj publiku]" style="text;html=1;align=center;verticalAlign=middle;resizable=0;points=[];autosize=1;" parent="eQLCnvTHSbkeNSu74QUB-1" vertex="1">
          <mxGeometry x="227.5" y="730" width="90" height="20" as="geometry" />
        </mxCell>
        <mxCell id="hTijNF06LR98DvZOKXGB-20" value="Sustav prikaže postotke odgovora publike" style="rounded=1;whiteSpace=wrap;html=1;arcSize=40;fontColor=#ffffff;fillColor=#1ba1e2;strokeColor=#006EAF;" parent="eQLCnvTHSbkeNSu74QUB-1" vertex="1">
          <mxGeometry x="42.5" y="730" width="169" height="40" as="geometry" />
        </mxCell>
        <mxCell id="hTijNF06LR98DvZOKXGB-21" value="" style="edgeStyle=orthogonalEdgeStyle;html=1;verticalAlign=bottom;endArrow=open;endSize=8;strokeColor=#ff0000;entryX=0;entryY=0.5;entryDx=0;entryDy=0;" parent="eQLCnvTHSbkeNSu74QUB-1" source="hTijNF06LR98DvZOKXGB-20" target="-BnQuXU2hVrl2p61wS7U-0" edge="1">
          <mxGeometry relative="1" as="geometry">
            <mxPoint x="127.5" y="810" as="targetPoint" />
            <Array as="points">
              <mxPoint x="140" y="955" />
            </Array>
          </mxGeometry>
        </mxCell>
        <mxCell id="7TJd9VZ6J8HMUlUF3ZC6-0" value="[Zovi]" style="text;html=1;align=center;verticalAlign=middle;resizable=0;points=[];autosize=1;" parent="eQLCnvTHSbkeNSu74QUB-1" vertex="1">
          <mxGeometry x="362.5" y="780" width="40" height="20" as="geometry" />
        </mxCell>
        <mxCell id="7TJd9VZ6J8HMUlUF3ZC6-1" value="[Pola - pola]" style="text;html=1;align=center;verticalAlign=middle;resizable=0;points=[];autosize=1;" parent="eQLCnvTHSbkeNSu74QUB-1" vertex="1">
          <mxGeometry x="416" y="730" width="80" height="20" as="geometry" />
        </mxCell>
        <mxCell id="HMVYbQjbbSEJwe9jfOvG-2" value="Sustav prikaže kojeg jockera je&lt;br&gt;korisnik odabrao" style="rounded=1;whiteSpace=wrap;html=1;arcSize=40;fontColor=#ffffff;fillColor=#1ba1e2;strokeColor=#006EAF;" parent="eQLCnvTHSbkeNSu74QUB-1" vertex="1">
          <mxGeometry x="280.5" y="650" width="169" height="40" as="geometry" />
        </mxCell>
        <mxCell id="HMVYbQjbbSEJwe9jfOvG-3" value="" style="edgeStyle=orthogonalEdgeStyle;html=1;verticalAlign=bottom;endArrow=open;endSize=8;strokeColor=#ff0000;" parent="eQLCnvTHSbkeNSu74QUB-1" source="HMVYbQjbbSEJwe9jfOvG-2" edge="1">
          <mxGeometry relative="1" as="geometry">
            <mxPoint x="365.5" y="730" as="targetPoint" />
          </mxGeometry>
        </mxCell>
        <mxCell id="HMVYbQjbbSEJwe9jfOvG-4" value="Sustav prikaže 1 odgovor&amp;nbsp;&lt;br&gt;jockera zovi" style="rounded=1;whiteSpace=wrap;html=1;arcSize=40;fontColor=#ffffff;fillColor=#1ba1e2;strokeColor=#006EAF;" parent="eQLCnvTHSbkeNSu74QUB-1" vertex="1">
          <mxGeometry x="280.5" y="840" width="169" height="40" as="geometry" />
        </mxCell>
        <mxCell id="HMVYbQjbbSEJwe9jfOvG-5" value="" style="edgeStyle=orthogonalEdgeStyle;html=1;verticalAlign=bottom;endArrow=open;endSize=8;strokeColor=#ff0000;entryX=0.5;entryY=0;entryDx=0;entryDy=0;" parent="eQLCnvTHSbkeNSu74QUB-1" source="HMVYbQjbbSEJwe9jfOvG-4" target="-BnQuXU2hVrl2p61wS7U-0" edge="1">
          <mxGeometry relative="1" as="geometry">
            <mxPoint x="365.5" y="920" as="targetPoint" />
            <Array as="points">
              <mxPoint x="367" y="910" />
            </Array>
          </mxGeometry>
        </mxCell>
        <mxCell id="HMVYbQjbbSEJwe9jfOvG-6" value="Sustav prikaže 2 odgovora" style="rounded=1;whiteSpace=wrap;html=1;arcSize=40;fontColor=#ffffff;fillColor=#1ba1e2;strokeColor=#006EAF;" parent="eQLCnvTHSbkeNSu74QUB-1" vertex="1">
          <mxGeometry x="512.5" y="730" width="187.5" height="40" as="geometry" />
        </mxCell>
        <mxCell id="HMVYbQjbbSEJwe9jfOvG-7" value="" style="edgeStyle=orthogonalEdgeStyle;html=1;verticalAlign=bottom;endArrow=open;endSize=8;strokeColor=#ff0000;entryX=1;entryY=0.5;entryDx=0;entryDy=0;" parent="eQLCnvTHSbkeNSu74QUB-1" source="HMVYbQjbbSEJwe9jfOvG-6" target="-BnQuXU2hVrl2p61wS7U-0" edge="1">
          <mxGeometry relative="1" as="geometry">
            <mxPoint x="540" y="960" as="targetPoint" />
            <Array as="points">
              <mxPoint x="606" y="955" />
            </Array>
          </mxGeometry>
        </mxCell>
        <mxCell id="-BnQuXU2hVrl2p61wS7U-0" value="" style="ellipse;html=1;shape=endState;fillColor=#000000;strokeColor=#ff0000;" parent="eQLCnvTHSbkeNSu74QUB-1" vertex="1">
          <mxGeometry x="351.5" y="940" width="30" height="30" as="geometry" />
        </mxCell>
      </root>
    </mxGraphModel>
  </diagram>
  <diagram id="s3G8mE_gGwUAFHB-Aqb5" name="Activity: Izračun osvojenog iznosa">
    <mxGraphModel dx="1102" dy="566" grid="1" gridSize="10" guides="1" tooltips="1" connect="1" arrows="1" fold="1" page="1" pageScale="1" pageWidth="827" pageHeight="1169" math="0" shadow="0">
      <root>
        <mxCell id="9vbAkpCROxBVzuG327Ve-0" />
        <mxCell id="9vbAkpCROxBVzuG327Ve-1" parent="9vbAkpCROxBVzuG327Ve-0" />
        <mxCell id="ds5r4dmlP_RSvd7fDZys-0" value="" style="ellipse;html=1;shape=startState;fillColor=#000000;strokeColor=#ff0000;" parent="9vbAkpCROxBVzuG327Ve-1" vertex="1">
          <mxGeometry x="438.5" y="60" width="30" height="30" as="geometry" />
        </mxCell>
        <mxCell id="ds5r4dmlP_RSvd7fDZys-1" value="" style="edgeStyle=orthogonalEdgeStyle;html=1;verticalAlign=bottom;endArrow=open;endSize=8;strokeColor=#ff0000;" parent="9vbAkpCROxBVzuG327Ve-1" source="ds5r4dmlP_RSvd7fDZys-0" edge="1">
          <mxGeometry relative="1" as="geometry">
            <mxPoint x="453.5" y="150" as="targetPoint" />
          </mxGeometry>
        </mxCell>
        <mxCell id="ds5r4dmlP_RSvd7fDZys-5" value="Sustav prikaže osvojeni iznosa prethodnog praga (0,5,10)" style="rounded=1;whiteSpace=wrap;html=1;arcSize=40;fontColor=#ffffff;fillColor=#1ba1e2;strokeColor=#006EAF;" parent="9vbAkpCROxBVzuG327Ve-1" vertex="1">
          <mxGeometry x="355.25" y="260" width="196.5" height="40" as="geometry" />
        </mxCell>
        <mxCell id="ds5r4dmlP_RSvd7fDZys-6" value="" style="edgeStyle=orthogonalEdgeStyle;html=1;verticalAlign=bottom;endArrow=open;endSize=8;strokeColor=#ff0000;" parent="9vbAkpCROxBVzuG327Ve-1" source="ds5r4dmlP_RSvd7fDZys-5" edge="1">
          <mxGeometry relative="1" as="geometry">
            <mxPoint x="453.5" y="360" as="targetPoint" />
          </mxGeometry>
        </mxCell>
        <mxCell id="zDdM4h8eVHQOByiLkdES-0" value="" style="rhombus;whiteSpace=wrap;html=1;fillColor=#1ba1e2;strokeColor=#006EAF;fontColor=#ffffff;" parent="9vbAkpCROxBVzuG327Ve-1" vertex="1">
          <mxGeometry x="413.5" y="150" width="80" height="40" as="geometry" />
        </mxCell>
        <mxCell id="zDdM4h8eVHQOByiLkdES-1" value="" style="edgeStyle=orthogonalEdgeStyle;html=1;align=left;verticalAlign=bottom;endArrow=open;endSize=8;strokeColor=#ff0000;" parent="9vbAkpCROxBVzuG327Ve-1" edge="1">
          <mxGeometry x="-1" relative="1" as="geometry">
            <mxPoint x="600" y="170" as="targetPoint" />
            <mxPoint x="493" y="169.5" as="sourcePoint" />
            <Array as="points">
              <mxPoint x="547" y="169.5" />
            </Array>
          </mxGeometry>
        </mxCell>
        <mxCell id="zDdM4h8eVHQOByiLkdES-2" value="" style="edgeStyle=orthogonalEdgeStyle;html=1;align=left;verticalAlign=top;endArrow=open;endSize=8;strokeColor=#ff0000;" parent="9vbAkpCROxBVzuG327Ve-1" source="zDdM4h8eVHQOByiLkdES-0" edge="1">
          <mxGeometry x="-1" relative="1" as="geometry">
            <mxPoint x="454" y="260" as="targetPoint" />
          </mxGeometry>
        </mxCell>
        <mxCell id="zDdM4h8eVHQOByiLkdES-3" value="" style="edgeStyle=orthogonalEdgeStyle;html=1;align=left;verticalAlign=bottom;endArrow=open;endSize=8;strokeColor=#ff0000;" parent="9vbAkpCROxBVzuG327Ve-1" edge="1">
          <mxGeometry x="-1" relative="1" as="geometry">
            <mxPoint x="210" y="170" as="targetPoint" />
            <mxPoint x="406.5" y="169.5" as="sourcePoint" />
            <Array as="points">
              <mxPoint x="416.5" y="169.5" />
              <mxPoint x="416.5" y="169.5" />
            </Array>
          </mxGeometry>
        </mxCell>
        <mxCell id="zDdM4h8eVHQOByiLkdES-4" value="[Odgovoreno na zadnje pitanje]" style="text;html=1;align=center;verticalAlign=middle;resizable=0;points=[];autosize=1;" parent="9vbAkpCROxBVzuG327Ve-1" vertex="1">
          <mxGeometry x="240" y="140" width="180" height="20" as="geometry" />
        </mxCell>
        <mxCell id="zDdM4h8eVHQOByiLkdES-5" value="[Krivo odgovoreno]" style="text;html=1;align=center;verticalAlign=middle;resizable=0;points=[];autosize=1;" parent="9vbAkpCROxBVzuG327Ve-1" vertex="1">
          <mxGeometry x="450" y="200" width="120" height="20" as="geometry" />
        </mxCell>
        <mxCell id="zDdM4h8eVHQOByiLkdES-6" value="[Igrač odustao]" style="text;html=1;align=center;verticalAlign=middle;resizable=0;points=[];autosize=1;" parent="9vbAkpCROxBVzuG327Ve-1" vertex="1">
          <mxGeometry x="498.5" y="150" width="90" height="20" as="geometry" />
        </mxCell>
        <mxCell id="RxYYTWqOeLiGe-nJ7fKP-0" value="Sustav prikaže kako je osvojio 1000000,00kn" style="rounded=1;whiteSpace=wrap;html=1;arcSize=40;fontColor=#ffffff;fillColor=#1ba1e2;strokeColor=#006EAF;" parent="9vbAkpCROxBVzuG327Ve-1" vertex="1">
          <mxGeometry x="60" y="150" width="150" height="40" as="geometry" />
        </mxCell>
        <mxCell id="RxYYTWqOeLiGe-nJ7fKP-1" value="" style="edgeStyle=orthogonalEdgeStyle;html=1;verticalAlign=bottom;endArrow=open;endSize=8;strokeColor=#ff0000;entryX=0;entryY=0.5;entryDx=0;entryDy=0;" parent="9vbAkpCROxBVzuG327Ve-1" source="RxYYTWqOeLiGe-nJ7fKP-0" target="RxYYTWqOeLiGe-nJ7fKP-4" edge="1">
          <mxGeometry relative="1" as="geometry">
            <mxPoint x="135" y="230" as="targetPoint" />
            <Array as="points">
              <mxPoint x="135" y="375" />
            </Array>
          </mxGeometry>
        </mxCell>
        <mxCell id="RxYYTWqOeLiGe-nJ7fKP-2" value="Sustav prikaže osvojeni iznos temeljem prethodno točno odgovorenog pitanja" style="rounded=1;whiteSpace=wrap;html=1;arcSize=40;fontColor=#ffffff;fillColor=#1ba1e2;strokeColor=#006EAF;" parent="9vbAkpCROxBVzuG327Ve-1" vertex="1">
          <mxGeometry x="600" y="140" width="200" height="60" as="geometry" />
        </mxCell>
        <mxCell id="RxYYTWqOeLiGe-nJ7fKP-3" value="" style="edgeStyle=orthogonalEdgeStyle;html=1;verticalAlign=bottom;endArrow=open;endSize=8;strokeColor=#ff0000;entryX=1;entryY=0.5;entryDx=0;entryDy=0;" parent="9vbAkpCROxBVzuG327Ve-1" source="RxYYTWqOeLiGe-nJ7fKP-2" target="RxYYTWqOeLiGe-nJ7fKP-4" edge="1">
          <mxGeometry relative="1" as="geometry">
            <mxPoint x="660" y="250" as="targetPoint" />
            <Array as="points">
              <mxPoint x="700" y="375" />
            </Array>
          </mxGeometry>
        </mxCell>
        <mxCell id="RxYYTWqOeLiGe-nJ7fKP-4" value="" style="ellipse;html=1;shape=endState;fillColor=#000000;strokeColor=#ff0000;" parent="9vbAkpCROxBVzuG327Ve-1" vertex="1">
          <mxGeometry x="438.5" y="360" width="30" height="30" as="geometry" />
        </mxCell>
      </root>
    </mxGraphModel>
  </diagram>
  <diagram id="NhAX2_qSYnvQwcsexuHK" name="Activity: Ponovno pokretanje igre">
    <mxGraphModel dx="1102" dy="566" grid="1" gridSize="10" guides="1" tooltips="1" connect="1" arrows="1" fold="1" page="1" pageScale="1" pageWidth="827" pageHeight="1169" math="0" shadow="0">
      <root>
        <mxCell id="2dlbphH55603lGZIIK9e-0" />
        <mxCell id="2dlbphH55603lGZIIK9e-1" parent="2dlbphH55603lGZIIK9e-0" />
        <mxCell id="fqAQSMw6Pp7aWlmQEJyO-0" value="" style="ellipse;html=1;shape=startState;fillColor=#000000;strokeColor=#ff0000;" parent="2dlbphH55603lGZIIK9e-1" vertex="1">
          <mxGeometry x="377.5" y="30" width="30" height="30" as="geometry" />
        </mxCell>
        <mxCell id="fqAQSMw6Pp7aWlmQEJyO-1" value="" style="edgeStyle=orthogonalEdgeStyle;html=1;verticalAlign=bottom;endArrow=open;endSize=8;strokeColor=#ff0000;" parent="2dlbphH55603lGZIIK9e-1" source="fqAQSMw6Pp7aWlmQEJyO-0" edge="1">
          <mxGeometry relative="1" as="geometry">
            <mxPoint x="392.5" y="120" as="targetPoint" />
          </mxGeometry>
        </mxCell>
        <mxCell id="fqAQSMw6Pp7aWlmQEJyO-3" value="Sustav igraču prikaže mogućnost ponovnog pokretanja igre" style="rounded=1;whiteSpace=wrap;html=1;arcSize=40;fillColor=#1ba1e2;strokeColor=#006EAF;fontColor=#ffffff;" parent="2dlbphH55603lGZIIK9e-1" vertex="1">
          <mxGeometry x="300" y="120" width="185" height="40" as="geometry" />
        </mxCell>
        <mxCell id="fqAQSMw6Pp7aWlmQEJyO-4" value="" style="edgeStyle=orthogonalEdgeStyle;html=1;verticalAlign=bottom;endArrow=open;endSize=8;strokeColor=#ff0000;" parent="2dlbphH55603lGZIIK9e-1" source="fqAQSMw6Pp7aWlmQEJyO-3" edge="1">
          <mxGeometry relative="1" as="geometry">
            <mxPoint x="392.5" y="220" as="targetPoint" />
          </mxGeometry>
        </mxCell>
        <mxCell id="fqAQSMw6Pp7aWlmQEJyO-5" value="Igrač unosi željeni odabir(odlučuje o ponovnom pokretanju igre)" style="rounded=1;whiteSpace=wrap;html=1;arcSize=40;fontColor=#ffffff;fillColor=#1ba1e2;strokeColor=#006EAF;" parent="2dlbphH55603lGZIIK9e-1" vertex="1">
          <mxGeometry x="281.25" y="220" width="222.5" height="40" as="geometry" />
        </mxCell>
        <mxCell id="fqAQSMw6Pp7aWlmQEJyO-6" value="" style="edgeStyle=orthogonalEdgeStyle;html=1;verticalAlign=bottom;endArrow=open;endSize=8;strokeColor=#ff0000;" parent="2dlbphH55603lGZIIK9e-1" source="fqAQSMw6Pp7aWlmQEJyO-5" edge="1">
          <mxGeometry relative="1" as="geometry">
            <mxPoint x="392.5" y="300" as="targetPoint" />
          </mxGeometry>
        </mxCell>
        <mxCell id="fqAQSMw6Pp7aWlmQEJyO-7" value="Sustav provjerava ispravnost unosa igrača" style="rounded=1;whiteSpace=wrap;html=1;arcSize=40;fontColor=#ffffff;fillColor=#d80073;strokeColor=#A50040;" parent="2dlbphH55603lGZIIK9e-1" vertex="1">
          <mxGeometry x="315" y="300" width="155" height="40" as="geometry" />
        </mxCell>
        <mxCell id="fqAQSMw6Pp7aWlmQEJyO-8" value="" style="edgeStyle=orthogonalEdgeStyle;html=1;verticalAlign=bottom;endArrow=open;endSize=8;strokeColor=#ff0000;" parent="2dlbphH55603lGZIIK9e-1" source="fqAQSMw6Pp7aWlmQEJyO-7" edge="1">
          <mxGeometry relative="1" as="geometry">
            <mxPoint x="392.5" y="400" as="targetPoint" />
          </mxGeometry>
        </mxCell>
        <mxCell id="ymFGEuWLGu28vy5ybZMm-0" value="" style="ellipse;html=1;shape=endState;fillColor=#000000;strokeColor=#ff0000;" parent="2dlbphH55603lGZIIK9e-1" vertex="1">
          <mxGeometry x="375" y="510" width="30" height="30" as="geometry" />
        </mxCell>
        <mxCell id="ymFGEuWLGu28vy5ybZMm-1" value="" style="rhombus;whiteSpace=wrap;html=1;fillColor=#d80073;strokeColor=#A50040;fontColor=#ffffff;" parent="2dlbphH55603lGZIIK9e-1" vertex="1">
          <mxGeometry x="350" y="400" width="80" height="40" as="geometry" />
        </mxCell>
        <mxCell id="ymFGEuWLGu28vy5ybZMm-2" value="" style="edgeStyle=orthogonalEdgeStyle;html=1;align=left;verticalAlign=top;endArrow=open;endSize=8;strokeColor=#ff0000;entryX=0.5;entryY=0;entryDx=0;entryDy=0;" parent="2dlbphH55603lGZIIK9e-1" source="ymFGEuWLGu28vy5ybZMm-1" target="ymFGEuWLGu28vy5ybZMm-0" edge="1">
          <mxGeometry x="-0.6667" y="16" relative="1" as="geometry">
            <mxPoint x="390" y="500" as="targetPoint" />
            <mxPoint as="offset" />
          </mxGeometry>
        </mxCell>
        <mxCell id="ymFGEuWLGu28vy5ybZMm-3" value="[Unos ispravan]" style="text;html=1;align=center;verticalAlign=middle;resizable=0;points=[];autosize=1;" parent="2dlbphH55603lGZIIK9e-1" vertex="1">
          <mxGeometry x="390" y="450" width="100" height="20" as="geometry" />
        </mxCell>
        <mxCell id="ymFGEuWLGu28vy5ybZMm-4" value="[Unos neispravan]" style="text;html=1;align=center;verticalAlign=middle;resizable=0;points=[];autosize=1;" parent="2dlbphH55603lGZIIK9e-1" vertex="1">
          <mxGeometry x="433.5" y="400" width="110" height="20" as="geometry" />
        </mxCell>
        <mxCell id="ymFGEuWLGu28vy5ybZMm-6" value="" style="edgeStyle=orthogonalEdgeStyle;html=1;verticalAlign=bottom;endArrow=open;endSize=8;strokeColor=#ff0000;exitX=1;exitY=0.5;exitDx=0;exitDy=0;entryX=1;entryY=0.5;entryDx=0;entryDy=0;" parent="2dlbphH55603lGZIIK9e-1" source="ymFGEuWLGu28vy5ybZMm-1" target="fqAQSMw6Pp7aWlmQEJyO-3" edge="1">
          <mxGeometry relative="1" as="geometry">
            <mxPoint x="660" y="120" as="targetPoint" />
            <mxPoint x="660" y="260" as="sourcePoint" />
            <Array as="points">
              <mxPoint x="600" y="420" />
              <mxPoint x="600" y="140" />
            </Array>
          </mxGeometry>
        </mxCell>
      </root>
    </mxGraphModel>
  </diagram>
  <diagram id="1eSL-zDKi-OJUsmojKWN" name="Dijagram klasa aktivnosti Milijunaša">
    <mxGraphModel dx="1102" dy="566" grid="1" gridSize="10" guides="1" tooltips="1" connect="1" arrows="1" fold="1" page="1" pageScale="1" pageWidth="827" pageHeight="1169" math="0" shadow="0">
      <root>
        <mxCell id="bbRr7BMPtLs90gV5m0XK-0" />
        <mxCell id="bbRr7BMPtLs90gV5m0XK-1" parent="bbRr7BMPtLs90gV5m0XK-0" />
        <mxCell id="bbRr7BMPtLs90gV5m0XK-2" value="&amp;lt;&amp;lt;View&amp;gt;&amp;gt;&lt;br&gt;&lt;b&gt;Prikaz igre&lt;/b&gt;" style="html=1;rounded=1;strokeColor=#006EAF;fillColor=#1ba1e2;fontSize=14;fontColor=#ffffff;" parent="bbRr7BMPtLs90gV5m0XK-1" vertex="1">
          <mxGeometry x="80" y="90" width="110" height="50" as="geometry" />
        </mxCell>
        <mxCell id="y3JAM-Fzt3FNYXvwa1IB-0" value="&amp;lt;&amp;lt;Controler&amp;gt;&amp;gt;&lt;br&gt;&lt;b&gt;Igra&lt;/b&gt;" style="html=1;rounded=1;strokeColor=#ff0000;fillColor=#ffffc0;fontSize=14;" parent="bbRr7BMPtLs90gV5m0XK-1" vertex="1">
          <mxGeometry x="240" y="90" width="110" height="50" as="geometry" />
        </mxCell>
        <mxCell id="y3JAM-Fzt3FNYXvwa1IB-1" value="&amp;lt;&amp;lt;Model&amp;gt;&amp;gt;&lt;br&gt;&lt;b&gt;Igrač&lt;/b&gt;" style="html=1;rounded=1;strokeColor=#ff0000;fillColor=#ffffc0;fontSize=14;" parent="bbRr7BMPtLs90gV5m0XK-1" vertex="1">
          <mxGeometry x="400" y="90" width="110" height="50" as="geometry" />
        </mxCell>
        <mxCell id="y3JAM-Fzt3FNYXvwa1IB-2" value="&amp;laquo;interface&amp;raquo;&lt;br&gt;&lt;b&gt;Name&lt;/b&gt;" style="html=1;rounded=1;strokeColor=#ff0000;fillColor=#ffffc0;fontSize=14;" parent="bbRr7BMPtLs90gV5m0XK-1" vertex="1">
          <mxGeometry x="560" y="90" width="110" height="50" as="geometry" />
        </mxCell>
        <mxCell id="y3JAM-Fzt3FNYXvwa1IB-3" value="&amp;lt;&amp;lt;Model&amp;gt;&amp;gt;&lt;br&gt;&lt;b&gt;Pitanja&lt;/b&gt;" style="html=1;rounded=1;strokeColor=#ff0000;fillColor=#ffffc0;fontSize=14;" parent="bbRr7BMPtLs90gV5m0XK-1" vertex="1">
          <mxGeometry x="240" y="240" width="110" height="50" as="geometry" />
        </mxCell>
        <mxCell id="y3JAM-Fzt3FNYXvwa1IB-4" value="&amp;lt;&amp;lt;Model&amp;gt;&amp;gt;&lt;br&gt;&lt;b&gt;Pitanje&lt;/b&gt;" style="html=1;rounded=1;strokeColor=#ff0000;fillColor=#ffffc0;fontSize=14;" parent="bbRr7BMPtLs90gV5m0XK-1" vertex="1">
          <mxGeometry x="400" y="240" width="110" height="50" as="geometry" />
        </mxCell>
        <mxCell id="y3JAM-Fzt3FNYXvwa1IB-7" value="" style="endArrow=none;html=1;strokeColor=#FF0000;fontSize=14;entryX=0;entryY=0.5;entryDx=0;entryDy=0;exitX=1;exitY=0.5;exitDx=0;exitDy=0;" parent="bbRr7BMPtLs90gV5m0XK-1" source="bbRr7BMPtLs90gV5m0XK-2" target="y3JAM-Fzt3FNYXvwa1IB-0" edge="1">
          <mxGeometry width="50" height="50" relative="1" as="geometry">
            <mxPoint x="193" y="115" as="sourcePoint" />
            <mxPoint x="250" y="170" as="targetPoint" />
          </mxGeometry>
        </mxCell>
        <mxCell id="y3JAM-Fzt3FNYXvwa1IB-8" value="" style="endArrow=none;html=1;strokeColor=#FF0000;fontSize=14;entryX=0;entryY=0.5;entryDx=0;entryDy=0;exitX=1;exitY=0.5;exitDx=0;exitDy=0;" parent="bbRr7BMPtLs90gV5m0XK-1" edge="1">
          <mxGeometry width="50" height="50" relative="1" as="geometry">
            <mxPoint x="350" y="114.5" as="sourcePoint" />
            <mxPoint x="400" y="114.5" as="targetPoint" />
          </mxGeometry>
        </mxCell>
        <mxCell id="y3JAM-Fzt3FNYXvwa1IB-9" value="" style="endArrow=none;html=1;strokeColor=#FF0000;fontSize=14;entryX=0;entryY=0.5;entryDx=0;entryDy=0;exitX=1;exitY=0.5;exitDx=0;exitDy=0;" parent="bbRr7BMPtLs90gV5m0XK-1" edge="1">
          <mxGeometry width="50" height="50" relative="1" as="geometry">
            <mxPoint x="510" y="114.5" as="sourcePoint" />
            <mxPoint x="560" y="114.5" as="targetPoint" />
          </mxGeometry>
        </mxCell>
        <mxCell id="y3JAM-Fzt3FNYXvwa1IB-10" value="" style="endArrow=none;html=1;strokeColor=#FF0000;fontSize=14;exitX=0.5;exitY=0;exitDx=0;exitDy=0;entryX=0.5;entryY=1;entryDx=0;entryDy=0;" parent="bbRr7BMPtLs90gV5m0XK-1" source="y3JAM-Fzt3FNYXvwa1IB-3" target="y3JAM-Fzt3FNYXvwa1IB-0" edge="1">
          <mxGeometry width="50" height="50" relative="1" as="geometry">
            <mxPoint x="220" y="145" as="sourcePoint" />
            <mxPoint x="290" y="160" as="targetPoint" />
          </mxGeometry>
        </mxCell>
        <mxCell id="y3JAM-Fzt3FNYXvwa1IB-11" value="" style="endArrow=none;html=1;strokeColor=#FF0000;fontSize=14;entryX=0.5;entryY=1;entryDx=0;entryDy=0;exitX=0.5;exitY=0;exitDx=0;exitDy=0;" parent="bbRr7BMPtLs90gV5m0XK-1" source="y3JAM-Fzt3FNYXvwa1IB-4" target="y3JAM-Fzt3FNYXvwa1IB-1" edge="1">
          <mxGeometry width="50" height="50" relative="1" as="geometry">
            <mxPoint x="390" y="260" as="sourcePoint" />
            <mxPoint x="440" y="210" as="targetPoint" />
          </mxGeometry>
        </mxCell>
        <mxCell id="y3JAM-Fzt3FNYXvwa1IB-12" value="" style="endArrow=none;html=1;strokeColor=#FF0000;fontSize=14;entryX=0;entryY=0.5;entryDx=0;entryDy=0;exitX=1;exitY=0.5;exitDx=0;exitDy=0;" parent="bbRr7BMPtLs90gV5m0XK-1" edge="1">
          <mxGeometry width="50" height="50" relative="1" as="geometry">
            <mxPoint x="350" y="264.5" as="sourcePoint" />
            <mxPoint x="400" y="264.5" as="targetPoint" />
          </mxGeometry>
        </mxCell>
      </root>
    </mxGraphModel>
  </diagram>
  <diagram id="rkIS1rCs70jhop7J8yn-" name="Dijagram klasa modela">
    <mxGraphModel dx="1102" dy="1735" grid="1" gridSize="10" guides="1" tooltips="1" connect="1" arrows="1" fold="1" page="1" pageScale="1" pageWidth="827" pageHeight="1169" math="0" shadow="0">
      <root>
        <mxCell id="rjTnlXwR8fOUbMPXj1VS-0" />
        <mxCell id="rjTnlXwR8fOUbMPXj1VS-1" parent="rjTnlXwR8fOUbMPXj1VS-0" />
        <mxCell id="rjTnlXwR8fOUbMPXj1VS-2" value="&lt;span style=&quot;font-weight: normal&quot;&gt;&amp;lt;&amp;lt;Model&amp;gt;&amp;gt;&lt;/span&gt;&lt;br&gt;Pitanja" style="swimlane;fontStyle=1;align=center;verticalAlign=top;childLayout=stackLayout;horizontal=1;startSize=40;horizontalStack=0;resizeParent=1;resizeParentMax=0;resizeLast=0;collapsible=1;marginBottom=0;rounded=1;strokeColor=#ff0000;fillColor=#ffffc0;fontSize=14;html=1;" parent="rjTnlXwR8fOUbMPXj1VS-1" vertex="1">
          <mxGeometry x="70" y="50" width="220" height="140" as="geometry">
            <mxRectangle x="100" y="50" width="100" height="40" as="alternateBounds" />
          </mxGeometry>
        </mxCell>
        <mxCell id="rjTnlXwR8fOUbMPXj1VS-3" value="-__sva_pitanja&#xa;+pitanja_15" style="text;strokeColor=none;fillColor=none;align=left;verticalAlign=top;spacingLeft=4;spacingRight=4;overflow=hidden;rotatable=0;points=[[0,0.5],[1,0.5]];portConstraint=eastwest;" parent="rjTnlXwR8fOUbMPXj1VS-2" vertex="1">
          <mxGeometry y="40" width="220" height="40" as="geometry" />
        </mxCell>
        <mxCell id="rjTnlXwR8fOUbMPXj1VS-4" value="" style="line;strokeWidth=1;fillColor=none;align=left;verticalAlign=middle;spacingTop=-1;spacingLeft=3;spacingRight=3;rotatable=0;labelPosition=right;points=[];portConstraint=eastwest;" parent="rjTnlXwR8fOUbMPXj1VS-2" vertex="1">
          <mxGeometry y="80" width="220" height="8" as="geometry" />
        </mxCell>
        <mxCell id="rjTnlXwR8fOUbMPXj1VS-5" value="+__init__()&lt;br&gt;&lt;u&gt;+dohvati_random_pitanja()&lt;br&gt;&lt;/u&gt;+__repr__()" style="text;strokeColor=none;fillColor=none;align=left;verticalAlign=top;spacingLeft=4;spacingRight=4;overflow=hidden;rotatable=0;points=[[0,0.5],[1,0.5]];portConstraint=eastwest;fontStyle=0;html=1;" parent="rjTnlXwR8fOUbMPXj1VS-2" vertex="1">
          <mxGeometry y="88" width="220" height="52" as="geometry" />
        </mxCell>
        <mxCell id="rjTnlXwR8fOUbMPXj1VS-14" value="&lt;span style=&quot;font-weight: normal&quot;&gt;&amp;lt;&amp;lt;Model&amp;gt;&amp;gt;&lt;/span&gt;&lt;br&gt;Jocker" style="swimlane;fontStyle=1;align=center;verticalAlign=top;childLayout=stackLayout;horizontal=1;startSize=40;horizontalStack=0;resizeParent=1;resizeParentMax=0;resizeLast=0;collapsible=1;marginBottom=0;rounded=1;strokeColor=#ff0000;fillColor=#ffffc0;fontSize=14;html=1;" parent="rjTnlXwR8fOUbMPXj1VS-1" vertex="1">
          <mxGeometry x="490" y="50" width="230" height="240" as="geometry" />
        </mxCell>
        <mxCell id="rjTnlXwR8fOUbMPXj1VS-15" value="-__svi_jockeri&#xa;-__jocker" style="text;strokeColor=none;fillColor=none;align=left;verticalAlign=top;spacingLeft=4;spacingRight=4;overflow=hidden;rotatable=0;points=[[0,0.5],[1,0.5]];portConstraint=eastwest;" parent="rjTnlXwR8fOUbMPXj1VS-14" vertex="1">
          <mxGeometry y="40" width="230" height="40" as="geometry" />
        </mxCell>
        <mxCell id="rjTnlXwR8fOUbMPXj1VS-16" value="" style="line;strokeWidth=1;fillColor=none;align=left;verticalAlign=middle;spacingTop=-1;spacingLeft=3;spacingRight=3;rotatable=0;labelPosition=right;points=[];portConstraint=eastwest;" parent="rjTnlXwR8fOUbMPXj1VS-14" vertex="1">
          <mxGeometry y="80" width="230" height="8" as="geometry" />
        </mxCell>
        <mxCell id="rjTnlXwR8fOUbMPXj1VS-17" value="+__init__(jocker=&quot;&quot;)&lt;br&gt;&amp;lt;&amp;lt;get&amp;gt;&amp;gt;+jocker()&lt;br&gt;&amp;lt;&amp;lt;set&amp;gt;&amp;gt;+jocker()&lt;br&gt;&amp;lt;&amp;lt;get&amp;gt;&amp;gt;+svi_jockeri()&lt;br&gt;&lt;u&gt;+pitaj_publiku(lista_odgovora)()&lt;br&gt;+zovi(lista_odgovora)()&lt;br&gt;+pola_pola(tocan)()&lt;br&gt;&lt;/u&gt;+__str__()&lt;br&gt;+__repr__()" style="text;strokeColor=none;fillColor=none;align=left;verticalAlign=top;spacingLeft=4;spacingRight=4;overflow=hidden;rotatable=0;points=[[0,0.5],[1,0.5]];portConstraint=eastwest;fontStyle=0;html=1;" parent="rjTnlXwR8fOUbMPXj1VS-14" vertex="1">
          <mxGeometry y="88" width="230" height="152" as="geometry" />
        </mxCell>
        <mxCell id="rjTnlXwR8fOUbMPXj1VS-18" value="&amp;lt;&amp;lt;Model&amp;gt;&amp;gt;&lt;br&gt;&lt;b&gt;Pitanje&lt;/b&gt;" style="swimlane;fontStyle=0;align=center;verticalAlign=top;childLayout=stackLayout;horizontal=1;startSize=40;horizontalStack=0;resizeParent=1;resizeParentMax=0;resizeLast=0;collapsible=1;marginBottom=0;rounded=1;strokeColor=#ff0000;fillColor=#ffffc0;fontSize=14;html=1;" parent="rjTnlXwR8fOUbMPXj1VS-1" vertex="1">
          <mxGeometry x="100" y="340" width="210" height="330" as="geometry" />
        </mxCell>
        <mxCell id="rjTnlXwR8fOUbMPXj1VS-19" value="&#xa;-__pitanje&#xa;-__odgovor_a&#xa;-__odgovor_b&#xa;-__odgovor_c&#xa;-__odgovor_d&#xa;-__tocan_odgovor&#xa;+jockerov_odgovor" style="text;strokeColor=none;fillColor=none;align=left;verticalAlign=top;spacingLeft=4;spacingRight=4;overflow=hidden;rotatable=0;points=[[0,0.5],[1,0.5]];portConstraint=eastwest;" parent="rjTnlXwR8fOUbMPXj1VS-18" vertex="1">
          <mxGeometry y="40" width="210" height="120" as="geometry" />
        </mxCell>
        <mxCell id="rjTnlXwR8fOUbMPXj1VS-20" value="" style="line;strokeWidth=1;fillColor=none;align=left;verticalAlign=middle;spacingTop=-1;spacingLeft=3;spacingRight=3;rotatable=0;labelPosition=right;points=[];portConstraint=eastwest;" parent="rjTnlXwR8fOUbMPXj1VS-18" vertex="1">
          <mxGeometry y="160" width="210" height="8" as="geometry" />
        </mxCell>
        <mxCell id="rjTnlXwR8fOUbMPXj1VS-21" value="+__init__(pitanje, a, b, c, d, tocan)&#xa;&lt;&lt;get&gt;&gt;+pitanje()&#xa;&lt;&lt;get&gt;&gt;+odgovor_a()&#xa;&lt;&lt;get&gt;&gt;+odgovor_b()&#xa;&lt;&lt;get&gt;&gt;+odgovor_c()&#xa;&lt;&lt;get&gt;&gt;+odgovor_d()&#xa;&lt;&lt;get&gt;&gt;+tocan_odgovor()&#xa;+je_tocan(ponudeni)&#xa;+__str__()&#xa;+__repr__()" style="text;strokeColor=none;fillColor=none;align=left;verticalAlign=top;spacingLeft=4;spacingRight=4;overflow=hidden;rotatable=0;points=[[0,0.5],[1,0.5]];portConstraint=eastwest;" parent="rjTnlXwR8fOUbMPXj1VS-18" vertex="1">
          <mxGeometry y="168" width="210" height="162" as="geometry" />
        </mxCell>
        <mxCell id="rjTnlXwR8fOUbMPXj1VS-22" value="&amp;lt;&amp;lt;Model&amp;gt;&amp;gt;&lt;br&gt;&lt;b&gt;Igrač&lt;/b&gt;" style="swimlane;fontStyle=0;align=center;verticalAlign=top;childLayout=stackLayout;horizontal=1;startSize=40;horizontalStack=0;resizeParent=1;resizeParentMax=0;resizeLast=0;collapsible=1;marginBottom=0;rounded=1;strokeColor=#ff0000;fillColor=#ffffc0;fontSize=14;html=1;" parent="rjTnlXwR8fOUbMPXj1VS-1" vertex="1">
          <mxGeometry x="540" y="400" width="160" height="260" as="geometry" />
        </mxCell>
        <mxCell id="rjTnlXwR8fOUbMPXj1VS-24" value="" style="line;strokeWidth=1;fillColor=none;align=left;verticalAlign=middle;spacingTop=-1;spacingLeft=3;spacingRight=3;rotatable=0;labelPosition=right;points=[];portConstraint=eastwest;" parent="rjTnlXwR8fOUbMPXj1VS-22" vertex="1">
          <mxGeometry y="40" width="160" height="8" as="geometry" />
        </mxCell>
        <mxCell id="rjTnlXwR8fOUbMPXj1VS-23" value="-__ime&#xa;-__iznos_ukupno&#xa;-__prijedeni_prag&#xa;-__iznosi" style="text;strokeColor=none;fillColor=none;align=left;verticalAlign=top;spacingLeft=4;spacingRight=4;overflow=hidden;rotatable=0;points=[[0,0.5],[1,0.5]];portConstraint=eastwest;" parent="rjTnlXwR8fOUbMPXj1VS-22" vertex="1">
          <mxGeometry y="48" width="160" height="70" as="geometry" />
        </mxCell>
        <mxCell id="rjTnlXwR8fOUbMPXj1VS-25" value="+__init__(ime)&#xa;&lt;&lt;get&gt;&gt;+ime()&#xa;&lt;&lt;get&gt;&gt;+iznos_ukupno()&#xa;&lt;&lt;set&gt;&gt;+iznos_ukupno()&#xa;&lt;&lt;get&gt;&gt;+prijedeni_prag()&#xa;&lt;&lt;set&gt;&gt;+prijedeni_prag()&#xa;&lt;&lt;get&gt;&gt;+iznosi()&#xa;+__str__()&#xa;+__repr__()" style="text;strokeColor=none;fillColor=none;align=left;verticalAlign=top;spacingLeft=4;spacingRight=4;overflow=hidden;rotatable=0;points=[[0,0.5],[1,0.5]];portConstraint=eastwest;" parent="rjTnlXwR8fOUbMPXj1VS-22" vertex="1">
          <mxGeometry y="118" width="160" height="142" as="geometry" />
        </mxCell>
        <mxCell id="rjTnlXwR8fOUbMPXj1VS-26" value="-__pitanje" style="endArrow=open;html=1;endSize=12;startArrow=diamondThin;startSize=14;startFill=0;edgeStyle=orthogonalEdgeStyle;align=left;verticalAlign=bottom;strokeColor=#FF0000;fontSize=14;exitX=0;exitY=0.5;exitDx=0;exitDy=0;entryX=1;entryY=0.5;entryDx=0;entryDy=0;" parent="rjTnlXwR8fOUbMPXj1VS-1" source="rjTnlXwR8fOUbMPXj1VS-23" target="rjTnlXwR8fOUbMPXj1VS-19" edge="1">
          <mxGeometry x="-0.451" y="25" relative="1" as="geometry">
            <mxPoint x="490" y="430" as="sourcePoint" />
            <mxPoint x="260" y="430" as="targetPoint" />
            <mxPoint as="offset" />
          </mxGeometry>
        </mxCell>
        <mxCell id="rjTnlXwR8fOUbMPXj1VS-27" value="1" style="text;html=1;strokeColor=none;fillColor=none;align=center;verticalAlign=middle;whiteSpace=wrap;rounded=0;" parent="rjTnlXwR8fOUbMPXj1VS-1" vertex="1">
          <mxGeometry x="480" y="440" width="40" height="20" as="geometry" />
        </mxCell>
        <mxCell id="rjTnlXwR8fOUbMPXj1VS-29" value="0...15" style="text;html=1;strokeColor=none;fillColor=none;align=center;verticalAlign=middle;whiteSpace=wrap;rounded=0;fontSize=14;" parent="rjTnlXwR8fOUbMPXj1VS-1" vertex="1">
          <mxGeometry x="320" y="400" width="40" height="20" as="geometry" />
        </mxCell>
        <mxCell id="rjTnlXwR8fOUbMPXj1VS-30" value="+__jocker" style="endArrow=open;html=1;endSize=12;startArrow=diamondThin;startSize=14;startFill=0;edgeStyle=orthogonalEdgeStyle;align=left;verticalAlign=bottom;strokeColor=#FF0000;fontSize=14;exitX=0.5;exitY=0;exitDx=0;exitDy=0;" parent="rjTnlXwR8fOUbMPXj1VS-1" source="rjTnlXwR8fOUbMPXj1VS-22" edge="1">
          <mxGeometry x="0.2143" y="47" relative="1" as="geometry">
            <mxPoint x="330" y="330" as="sourcePoint" />
            <mxPoint x="590" y="290" as="targetPoint" />
            <mxPoint x="7" y="25" as="offset" />
          </mxGeometry>
        </mxCell>
        <mxCell id="rjTnlXwR8fOUbMPXj1VS-31" value="1" style="text;html=1;strokeColor=none;fillColor=none;align=center;verticalAlign=middle;whiteSpace=wrap;rounded=0;fontSize=14;" parent="rjTnlXwR8fOUbMPXj1VS-1" vertex="1">
          <mxGeometry x="720" y="400" width="40" height="20" as="geometry" />
        </mxCell>
        <mxCell id="rjTnlXwR8fOUbMPXj1VS-32" value="0...3" style="text;html=1;strokeColor=none;fillColor=none;align=center;verticalAlign=middle;whiteSpace=wrap;rounded=0;fontSize=14;" parent="rjTnlXwR8fOUbMPXj1VS-1" vertex="1">
          <mxGeometry x="610" y="300" width="40" height="20" as="geometry" />
        </mxCell>
        <mxCell id="rjTnlXwR8fOUbMPXj1VS-34" value="+pitanja15" style="endArrow=open;html=1;endSize=12;startArrow=diamondThin;startSize=14;startFill=0;edgeStyle=orthogonalEdgeStyle;align=left;verticalAlign=bottom;strokeColor=#FF0000;fontSize=14;entryX=0.445;entryY=1;entryDx=0;entryDy=0;entryPerimeter=0;exitX=0.5;exitY=0;exitDx=0;exitDy=0;" parent="rjTnlXwR8fOUbMPXj1VS-1" source="rjTnlXwR8fOUbMPXj1VS-18" target="rjTnlXwR8fOUbMPXj1VS-5" edge="1">
          <mxGeometry x="-0.8766" y="-10" relative="1" as="geometry">
            <mxPoint x="200" y="270" as="sourcePoint" />
            <mxPoint x="490" y="230" as="targetPoint" />
            <mxPoint as="offset" />
          </mxGeometry>
        </mxCell>
        <mxCell id="rjTnlXwR8fOUbMPXj1VS-36" value="0...547" style="text;html=1;strokeColor=none;fillColor=none;align=center;verticalAlign=middle;whiteSpace=wrap;rounded=0;fontSize=14;" parent="rjTnlXwR8fOUbMPXj1VS-1" vertex="1">
          <mxGeometry x="180" y="190" width="40" height="20" as="geometry" />
        </mxCell>
        <mxCell id="rjTnlXwR8fOUbMPXj1VS-37" value="1" style="text;html=1;strokeColor=none;fillColor=none;align=center;verticalAlign=middle;whiteSpace=wrap;rounded=0;fontSize=14;" parent="rjTnlXwR8fOUbMPXj1VS-1" vertex="1">
          <mxGeometry x="140" y="310" width="40" height="20" as="geometry" />
        </mxCell>
        <mxCell id="cY8LbeWH8NaBffMdi2as-0" value="&amp;lt;&amp;lt;View&amp;gt;&amp;gt;&lt;br&gt;Prikaz igre" style="swimlane;fontStyle=1;align=center;verticalAlign=top;childLayout=stackLayout;horizontal=1;startSize=40;horizontalStack=0;resizeParent=1;resizeParentMax=0;resizeLast=0;collapsible=1;marginBottom=0;rounded=1;strokeColor=#006EAF;fillColor=#1ba1e2;fontSize=14;html=1;fontColor=#ffffff;" parent="rjTnlXwR8fOUbMPXj1VS-1" vertex="1">
          <mxGeometry x="930" y="440" width="280" height="200" as="geometry">
            <mxRectangle x="100" y="50" width="100" height="40" as="alternateBounds" />
          </mxGeometry>
        </mxCell>
        <mxCell id="cY8LbeWH8NaBffMdi2as-1" value="&lt;u&gt;+prikazi_pocetak_igre()&lt;br&gt;+unesi_igraca()&lt;br&gt;+prikazi_pitanje(pitanje_objekt,redni_broj,iznos)()&lt;br&gt;+prikazi_prag(iznos_praga)()&lt;br&gt;+prikazi_odluku_za_nastavak()&lt;/u&gt;&lt;br&gt;+ponudi_moguce_jockere(lista_jockera)()&lt;br&gt;&lt;u&gt;+izaberi_jockera(lista_jockera)()&lt;br&gt;+igrac_odgovara(pitanje_objekt)()&lt;br&gt;+ispisi_osvojeni_iznos(iznos)&lt;br&gt;+prikazi_odluke_o_nastavku()&lt;/u&gt;" style="text;strokeColor=none;fillColor=none;align=left;verticalAlign=top;spacingLeft=4;spacingRight=4;overflow=hidden;rotatable=0;points=[[0,0.5],[1,0.5]];portConstraint=eastwest;fontStyle=0;html=1;" parent="cY8LbeWH8NaBffMdi2as-0" vertex="1">
          <mxGeometry y="40" width="280" height="160" as="geometry" />
        </mxCell>
        <mxCell id="PFDKehM_y9EnRAL1LC5N-4" value="&lt;span style=&quot;color: rgb(255 , 255 , 255) ; font-weight: normal&quot;&gt;&amp;lt;&amp;lt;Controler&amp;gt;&amp;gt;&lt;/span&gt;&lt;br style=&quot;color: rgb(255 , 255 , 255)&quot;&gt;&lt;span style=&quot;color: rgb(255 , 255 , 255)&quot;&gt;Igra&lt;/span&gt;" style="swimlane;fontStyle=1;align=center;verticalAlign=top;childLayout=stackLayout;horizontal=1;startSize=40;horizontalStack=0;resizeParent=1;resizeParentMax=0;resizeLast=0;collapsible=1;marginBottom=0;rounded=1;strokeColor=#A50040;fillColor=#d80073;fontSize=14;html=1;fontColor=#ffffff;" parent="rjTnlXwR8fOUbMPXj1VS-1" vertex="1">
          <mxGeometry x="940" y="50" width="320" height="290" as="geometry">
            <mxRectangle x="100" y="50" width="100" height="40" as="alternateBounds" />
          </mxGeometry>
        </mxCell>
        <mxCell id="PFDKehM_y9EnRAL1LC5N-5" value="-__prikaz&#xa;-__pitanja&#xa;-__igrac" style="text;strokeColor=none;fillColor=none;align=left;verticalAlign=top;spacingLeft=4;spacingRight=4;overflow=hidden;rotatable=0;points=[[0,0.5],[1,0.5]];portConstraint=eastwest;" parent="PFDKehM_y9EnRAL1LC5N-4" vertex="1">
          <mxGeometry y="40" width="320" height="50" as="geometry" />
        </mxCell>
        <mxCell id="PFDKehM_y9EnRAL1LC5N-6" value="" style="line;strokeWidth=1;fillColor=none;align=left;verticalAlign=middle;spacingTop=-1;spacingLeft=3;spacingRight=3;rotatable=0;labelPosition=right;points=[];portConstraint=eastwest;" parent="PFDKehM_y9EnRAL1LC5N-4" vertex="1">
          <mxGeometry y="90" width="320" height="8" as="geometry" />
        </mxCell>
        <mxCell id="PFDKehM_y9EnRAL1LC5N-7" value="+__init__(prikaz = None)()&lt;br&gt;+prikaz()&lt;br&gt;&amp;lt;&amp;lt;get&amp;gt;&amp;gt;+pitanja()&lt;br&gt;&amp;lt;&amp;lt;set&amp;gt;&amp;gt;+pitanja()&lt;br&gt;&amp;lt;&amp;lt;get&amp;gt;&amp;gt;+igrac()&lt;br&gt;&amp;lt;&amp;lt;set&amp;gt;&amp;gt;+igrac()&lt;br&gt;+igranje_milijunasa()&lt;br&gt;+unos_igraca()&lt;br&gt;+odaberi_pitanja()&lt;br&gt;+prikazi_pitanje(pitanje,redni_broj_iznos)()&lt;br&gt;+igrac_odgovara(pitanje,redni_broj)()&lt;br&gt;+igrac_koristi_jockera(jocker, pitanje, redni_broj)()&lt;br&gt;+provjera_odluke_o_nastavku()" style="text;strokeColor=none;fillColor=none;align=left;verticalAlign=top;spacingLeft=4;spacingRight=4;overflow=hidden;rotatable=0;points=[[0,0.5],[1,0.5]];portConstraint=eastwest;fontStyle=0;html=1;" parent="PFDKehM_y9EnRAL1LC5N-4" vertex="1">
          <mxGeometry y="98" width="320" height="192" as="geometry" />
        </mxCell>
        <mxCell id="PFDKehM_y9EnRAL1LC5N-8" value="-__igrac" style="endArrow=open;html=1;endSize=12;startArrow=diamondThin;startSize=14;startFill=0;edgeStyle=orthogonalEdgeStyle;align=left;verticalAlign=bottom;strokeColor=#FF0000;fontSize=14;exitX=0;exitY=0.224;exitDx=0;exitDy=0;exitPerimeter=0;" parent="rjTnlXwR8fOUbMPXj1VS-1" source="PFDKehM_y9EnRAL1LC5N-7" edge="1">
          <mxGeometry x="-0.7068" y="-11" relative="1" as="geometry">
            <mxPoint x="930" y="191" as="sourcePoint" />
            <mxPoint x="700" y="422" as="targetPoint" />
            <mxPoint as="offset" />
            <Array as="points">
              <mxPoint x="790" y="191" />
              <mxPoint x="790" y="422" />
            </Array>
          </mxGeometry>
        </mxCell>
        <mxCell id="PFDKehM_y9EnRAL1LC5N-10" value="-__prikaz" style="text;html=1;strokeColor=none;fillColor=none;align=center;verticalAlign=middle;whiteSpace=wrap;rounded=0;fontSize=14;" parent="rjTnlXwR8fOUbMPXj1VS-1" vertex="1">
          <mxGeometry x="1080" y="350" width="70" height="20" as="geometry" />
        </mxCell>
        <mxCell id="PFDKehM_y9EnRAL1LC5N-14" value="" style="edgeStyle=orthogonalEdgeStyle;html=1;verticalAlign=bottom;endArrow=open;endSize=8;strokeColor=#ff0000;" parent="rjTnlXwR8fOUbMPXj1VS-1" edge="1">
          <mxGeometry relative="1" as="geometry">
            <mxPoint x="1070" y="440" as="targetPoint" />
            <mxPoint x="1070" y="341" as="sourcePoint" />
            <Array as="points">
              <mxPoint x="1069.5" y="341" />
            </Array>
          </mxGeometry>
        </mxCell>
        <mxCell id="PFDKehM_y9EnRAL1LC5N-16" value="-__pitanja" style="endArrow=open;html=1;endSize=12;startArrow=diamondThin;startSize=14;startFill=0;edgeStyle=orthogonalEdgeStyle;align=left;verticalAlign=bottom;strokeColor=#FF0000;fontSize=14;" parent="rjTnlXwR8fOUbMPXj1VS-1" source="PFDKehM_y9EnRAL1LC5N-4" target="rjTnlXwR8fOUbMPXj1VS-2" edge="1">
          <mxGeometry x="-0.9135" y="50" relative="1" as="geometry">
            <mxPoint x="1070" y="-93" as="sourcePoint" />
            <mxPoint x="570" y="-10.960000000000093" as="targetPoint" />
            <mxPoint as="offset" />
            <Array as="points">
              <mxPoint x="1050" y="-40" />
              <mxPoint x="180" y="-40" />
            </Array>
          </mxGeometry>
        </mxCell>
        <mxCell id="PFDKehM_y9EnRAL1LC5N-17" value="0..15" style="text;html=1;strokeColor=none;fillColor=none;align=center;verticalAlign=middle;whiteSpace=wrap;rounded=0;fontSize=14;" parent="rjTnlXwR8fOUbMPXj1VS-1" vertex="1">
          <mxGeometry x="210" y="-20" width="40" height="20" as="geometry" />
        </mxCell>
      </root>
    </mxGraphModel>
  </diagram>
  <diagram id="03F8EqJvmpRXgtQm9pyt" name="Dijagram klasa pogleda Milijunaša">
    <mxGraphModel dx="1102" dy="566" grid="1" gridSize="10" guides="1" tooltips="1" connect="1" arrows="1" fold="1" page="1" pageScale="1" pageWidth="827" pageHeight="1169" math="0" shadow="0">
      <root>
        <mxCell id="O8f4FDQuEjnaWKgtigV5-0" />
        <mxCell id="O8f4FDQuEjnaWKgtigV5-1" parent="O8f4FDQuEjnaWKgtigV5-0" />
        <mxCell id="gjnJKwNDvQQ98wO3zZDJ-0" value="&amp;lt;&amp;lt;View&amp;gt;&amp;gt;&lt;br&gt;Prikaz igre" style="swimlane;fontStyle=1;align=center;verticalAlign=top;childLayout=stackLayout;horizontal=1;startSize=40;horizontalStack=0;resizeParent=1;resizeParentMax=0;resizeLast=0;collapsible=1;marginBottom=0;rounded=1;strokeColor=#006EAF;fillColor=#1ba1e2;fontSize=14;html=1;fontColor=#ffffff;" parent="O8f4FDQuEjnaWKgtigV5-1" vertex="1">
          <mxGeometry x="330" y="260" width="280" height="200" as="geometry">
            <mxRectangle x="100" y="50" width="100" height="40" as="alternateBounds" />
          </mxGeometry>
        </mxCell>
        <mxCell id="gjnJKwNDvQQ98wO3zZDJ-1" value="&lt;u&gt;+prikazi_pocetak_igre()&lt;br&gt;+unesi_igraca()&lt;br&gt;+prikazi_pitanje(pitanje_objekt,redni_broj,iznos)()&lt;br&gt;+prikazi_prag(iznos_praga)()&lt;br&gt;+prikazi_odluku_za_nastavak()&lt;/u&gt;&lt;br&gt;+ponudi_moguce_jockere(lista_jockera)()&lt;br&gt;&lt;u&gt;+izaberi_jockera(lista_jockera)()&lt;br&gt;+igrac_odgovara(pitanje_objekt)()&lt;br&gt;+ispisi_osvojeni_iznos(iznos)&lt;br&gt;+prikazi_odluke_o_nastavku()&lt;/u&gt;" style="text;strokeColor=none;fillColor=none;align=left;verticalAlign=top;spacingLeft=4;spacingRight=4;overflow=hidden;rotatable=0;points=[[0,0.5],[1,0.5]];portConstraint=eastwest;fontStyle=0;html=1;" parent="gjnJKwNDvQQ98wO3zZDJ-0" vertex="1">
          <mxGeometry y="40" width="280" height="160" as="geometry" />
        </mxCell>
      </root>
    </mxGraphModel>
  </diagram>
</mxfile>
